<svg data-name="Layer 1"
  width="320"
  height="240"
  xmlns="http://www.w3.org/2000/svg">
  <path d="M106.614 231.518q-14.652 0-29.26-.456c-13.916-.434-28.305-.882-41.68-7.324-9.355-4.507-17.642-11.736-23.962-20.908a65.341 65.341 0 0 1-9.184-19.997 71.892 71.892 0 0 1-2.027-10.465 71.173 71.173 0 0 1 2.372-28.45 63.543 63.543 0 0 1 5.337-12.7c9.753-17.542 27.542-29.316 48.807-32.305a2.835 2.835 0 0 1 .53-.01c.095.004.19.009.288.005l.125-.034a6.873 6.873 0 0 1 .985-.22c32.795-4.24 67.464 4.34 100.257 24.81 25.355 15.83 58.958 24.354 102.729 26.06l.621.027c12.185.608 23.971 4.971 34.086 12.618a64.038 64.038 0 0 1 21.678 29.12 59.22 59.22 0 0 1 1.407 4.338c.79 2.793-.126 5.615-2.513 7.763v.003l-.109.097a11.59 11.59 0 0 1-.82.646l-.333.238c-2.797 2.001-5.006 3.582-7.65 4.81a25.825 25.825 0 0 1-5.582 1.83 929.77 929.77 0 0 1-32.195 6.224 965.587 965.587 0 0 1-63.37 8.918 944.31 944.31 0 0 1-100.537 5.362zM57.298 99.524a1.459 1.459 0 0 0-.196.011c-21.065 2.962-38.686 14.62-48.343 31.988a62.904 62.904 0 0 0-5.283 12.575 70.542 70.542 0 0 0-2.35 28.197 71.262 71.262 0 0 0 2.01 10.373 64.713 64.713 0 0 0 9.094 19.805c6.258 9.082 14.46 16.24 23.717 20.698 13.255 6.384 27.576 6.831 41.426 7.263a943.638 943.638 0 0 0 129.711-4.903 964.971 964.971 0 0 0 63.329-8.913 927.776 927.776 0 0 0 32.173-6.22 25.18 25.18 0 0 0 5.447-1.785c2.59-1.203 4.779-2.769 7.55-4.75l.331-.238c.243-.174.481-.36.71-.554l.064-.06c2.277-1.992 3.162-4.622 2.43-7.213a58.525 58.525 0 0 0-1.392-4.293c-8.576-23.5-30.76-40.106-55.204-41.326l-.618-.028c-19.994-.779-37.49-2.937-53.486-6.599-19.096-4.37-35.766-10.95-49.55-19.555-32.667-20.392-67.191-28.94-99.843-24.72a6.298 6.298 0 0 0-.898.203l-.225.055c-.13.007-.257.001-.384-.004-.076-.004-.149-.007-.22-.007z"
    fill="#f0f0f0"
    style="stroke-width:.314388"/>
  <path d="M316.896 203.248v.003c-.255.22-.522.431-.799.63-4.615 3.303-7.769 5.62-13.446 6.825q-16.034 3.395-32.184 6.221-31.507 5.518-63.35 8.916a941.277 941.277 0 0 1-129.753 4.905c-14.424-.45-28.336-.927-41.553-7.294-9.661-4.653-17.779-12.006-23.84-20.803-6.146-8.919-9.884-19.473-11.158-30.32a31.152 31.152 0 0 1 9.423-2.452c11.28-1.075 22.38 3.056 32.64 7.863 10.26 4.804 20.337 10.419 31.447 12.635 16.374 3.267 33.275-1.175 48.973-6.863 15.697-5.687 31.15-12.71 47.705-14.858 22.205-2.883 44.486 3.22 66.046 9.262l68.902 19.31c3.282.918 6.687 1.902 9.246 4.153a11.372 11.372 0 0 1 1.7 1.867z"
    fill="#e6e6e6"
    style="stroke-width:.314388"/>
  <path d="M316.896 203.248v.003c-.255.22-.522.431-.799.63-2.892 2.068-5.21 3.753-7.932 5.017q-14.039 1.382-28.116 2.392-36.231 2.599-72.604 2.764c-49.193.251-100.912 1.792-143.984-22.101-14.331-7.95-35.092 8.353-49.29-.365a65.573 65.573 0 0 1-11.34-8.838 71.4 71.4 0 0 1-2.018-10.418 70.65 70.65 0 0 1 2.361-28.324 63.006 63.006 0 0 1 5.31-12.638c6.596 2.367 12.922 5.775 18.942 9.385 11.042 6.611 21.778 14.119 34.074 17.904 18.124 5.58 37.732 2.512 56.124-2.103 18.392-4.616 36.66-10.765 55.615-11.284 25.422-.695 49.89 8.772 73.554 18.087q35.61 14.02 71.228 28.037.783 2.127 1.4 4.317c.839 2.967-.378 5.655-2.525 7.535z"
    fill="#f2f2f2"
    style="stroke-width:.314388"/>
  <path d="M85.433 82.554c-3.575-2.41-3.225-7.684.556-9.757q.115-.063.226-.13l.568-2.723c1.116 1.158 3.31.94 4.174-.416A70.877 70.877 0 0 0 79.195 51.9a6.352 6.352 0 0 1-.091-8.426l.054-.064a30.074 30.074 0 0 0 7.594-3.835C78.738 26.701 63.457 16.472 59.825 1.748 48.898 13.482 47.671 17.615 36.745 29.35c0 0-10.347 9.336-12.58 14.354.548.576 5.46 1.96 5.65 3.092 3.746.3 10.237-3.806 10.237-3.806S25.885 58.094 21.584 67.397c-.388.838-.756 1.794-.431 2.658.259.69 1.188 1.088 1.787.814a7.663 7.663 0 0 0-1.69 2.42 6.582 6.582 0 0 0 8.12-.818l-1.798 3.358.001.003a4.894 4.894 0 0 1 1.814 8.234c-3.717 3.457-7.114 7.092-8.359 9.485-1.17 2.252 10.852 4.966 13.557 4.854 2.704-.11 5.232-1.3 7.674-2.465a5.678 5.678 0 0 0 .613 3.23 10.332 10.332 0 0 0 7.913-1.279c-.108 2.227 2.701 3.457 4.652 2.827-.974 15.402-.262 37.03.673 59.481h2.321v-58.593a6.998 6.998 0 0 0 1.96.651c4.748.843 10.477 1.355 13.567-2.347 3.556 3.586 10.072 3.517 13.607-.055-.348.616.185 1.653.973 1.817.928.192 1.831-.36 2.62-.886l10.704-7.157-16.429-11.075Z"
    fill="#e6e6e6"
    style="stroke-width:.314388"/>
  <circle cx="192.545"
    cy="64.182"
    r="11.205"
    fill="#f2f2f2"
    style="stroke-width:.314388"/>
  <path d="M217.624 58.877c-.648-2.171-2.48-3.588-4.692-3.9-.024-.003-.047.002-.071 0a.699.699 0 0 0-.096-.022 13.978 13.978 0 0 0-8.996 1.959c-2.594 1.619-5.615 2.351-8.67 2.47l-.055.003a5.536 5.536 0 0 0-4.952 3.99.65.65 0 0 0 .29.712 2.84 2.84 0 0 0 1.17.594q1.396.296 2.802.542 2.743.48 5.515.776a82.007 82.007 0 0 0 11.296.427c1.256-.04 2.467-.08 3.618-.635a5.383 5.383 0 0 0 2.075-1.811 6.106 6.106 0 0 0 .766-5.105zM194.335 73.816c-.648-2.17-2.479-3.588-4.69-3.899-.025-.003-.048.001-.073 0a.698.698 0 0 0-.095-.022 13.978 13.978 0 0 0-8.997 1.958c-2.593 1.62-5.615 2.352-8.67 2.47l-.054.003a5.536 5.536 0 0 0-4.952 3.992.65.65 0 0 0 .29.71 2.84 2.84 0 0 0 1.17.595q1.396.295 2.802.541 2.743.48 5.515.777a82.01 82.01 0 0 0 11.296.427c1.255-.04 2.467-.081 3.617-.635a5.383 5.383 0 0 0 2.076-1.811 6.107 6.107 0 0 0 .765-5.106zM289.156 120.595c-3.575-2.41-3.225-7.684.556-9.757q.115-.063.226-.13l.569-2.723c1.115 1.158 3.308.94 4.173-.416a70.877 70.877 0 0 0-11.762-17.627 6.352 6.352 0 0 1-.091-8.426l.054-.064a30.074 30.074 0 0 0 7.594-3.835c-8.014-12.875-23.295-23.104-26.927-37.828-10.927 11.734-12.153 15.867-23.08 27.601 0 0-10.347 9.337-12.58 14.354.548.577 5.46 1.96 5.65 3.093 3.746.3 10.237-3.806 10.237-3.806s-14.167 15.104-18.468 24.407c-.388.837-.755 1.794-.43 2.658.258.69 1.187 1.088 1.786.814a7.663 7.663 0 0 0-1.69 2.42 6.582 6.582 0 0 0 8.12-.818l-1.798 3.358.001.003a4.894 4.894 0 0 1 1.815 8.234c-3.718 3.458-7.115 7.092-8.36 9.485-1.17 2.252 10.853 4.966 13.557 4.855 2.704-.111 5.232-1.3 7.675-2.466a5.678 5.678 0 0 0 .612 3.23 10.332 10.332 0 0 0 7.913-1.279c-.108 2.228 2.702 3.458 4.652 2.827-.974 15.402-.262 37.03.674 59.482h2.32v-58.594a6.998 6.998 0 0 0 1.96.652c4.748.842 10.478 1.355 13.567-2.348 3.556 3.586 10.072 3.518 13.607-.055-.348.616.185 1.654.973 1.817.928.193 1.831-.359 2.62-.886l10.704-7.156-16.429-11.076zM19.804 180.326a1.136 1.136 0 0 0 .823-1.97l-.078-.309.031-.074a3.05 3.05 0 0 1 5.627.021c.92 2.217 2.092 4.437 2.38 6.78a9.025 9.025 0 0 1-.158 3.104 36.182 36.182 0 0 0 3.292-15.027 34.922 34.922 0 0 0-.217-3.896q-.18-1.59-.498-3.159a36.6 36.6 0 0 0-7.258-15.512 9.74 9.74 0 0 1-4.051-4.203 7.43 7.43 0 0 1-.676-2.03c.197.025.398.042.595.054l.187.01.024.001a1.125 1.125 0 0 0 .924-1.833l-.256-.314c-.129-.162-.262-.32-.39-.482a.56.56 0 0 1-.043-.049l-.446-.55a3.254 3.254 0 0 1 1.067-1.03c1.49-.873 3.547-.269 4.623 1.08 1.08 1.347 1.284 3.239.909 4.923a13.042 13.042 0 0 1-1.804 4.022c.08.104.164.204.245.307a36.837 36.837 0 0 1 3.845 6.092 15.314 15.314 0 0 1 .914-7.113c.875-2.111 2.516-3.89 3.96-5.714 1.735-2.192 5.293-1.236 5.598 1.543l.01.08q-.323.182-.63.386a1.54 1.54 0 0 0 .62 2.804l.032.005a15.331 15.331 0 0 1-.404 2.293 15.785 15.785 0 0 1-7.86 9.893c-.126.065-.249.13-.375.19a36.637 36.637 0 0 1 1.384 4.996 36.971 36.971 0 0 1 .64 4.53 35.662 35.662 0 0 1-.026 5.757l.01-.067a9.423 9.423 0 0 1 3.217-5.442c2.475-2.033 5.973-2.782 8.644-4.417a1.769 1.769 0 0 1 2.708 1.72l-.01.072a10.35 10.35 0 0 0-1.161.56q-.322.18-.63.385a1.54 1.54 0 0 0 .62 2.804l.032.005.065.01a15.345 15.345 0 0 1-2.823 4.42 15.8 15.8 0 0 1-11.458 5.027h-.003a37.59 37.59 0 0 1-2.525 7.37h-9.02c-.033-.1-.062-.203-.09-.303a10.249 10.249 0 0 0 2.495-.15c-.67-.82-1.338-1.648-2.008-2.47a.56.56 0 0 1-.042-.048c-.34-.42-.682-.837-1.021-1.257v-.001a15.012 15.012 0 0 1 .44-3.824z"
    fill="#e6e6e6"
    style="stroke-width:.314388"/>
  <path d="M288.605 189.129a1.136 1.136 0 0 0 .823-1.97l-.077-.309.03-.074a3.05 3.05 0 0 1 5.627.02c.92 2.217 2.092 4.438 2.381 6.782a9.025 9.025 0 0 1-.158 3.103 36.182 36.182 0 0 0 3.29-15.027 34.922 34.922 0 0 0-.216-3.896q-.18-1.59-.498-3.159a36.6 36.6 0 0 0-7.258-15.512 9.74 9.74 0 0 1-4.051-4.203 7.43 7.43 0 0 1-.676-2.03c.198.025.398.041.595.054l.188.01.023.001a1.125 1.125 0 0 0 .924-1.833l-.255-.314c-.13-.162-.262-.32-.391-.482a.56.56 0 0 1-.042-.049c-.15-.184-.298-.365-.447-.55a3.254 3.254 0 0 1 1.067-1.03c1.49-.874 3.547-.269 4.624 1.08 1.08 1.347 1.283 3.239.908 4.923a13.042 13.042 0 0 1-1.804 4.022c.08.104.165.204.246.307a36.837 36.837 0 0 1 3.845 6.092 15.314 15.314 0 0 1 .914-7.113c.875-2.111 2.515-3.89 3.96-5.714 1.735-2.192 5.292-1.236 5.598 1.543l.008.08q-.322.182-.63.386a1.54 1.54 0 0 0 .621 2.804l.032.005a15.331 15.331 0 0 1-.405 2.293 15.785 15.785 0 0 1-7.86 9.893c-.125.064-.248.13-.374.19a37.6 37.6 0 0 1 2.024 9.525 35.662 35.662 0 0 1-.026 5.758l.01-.068a9.423 9.423 0 0 1 3.217-5.44c2.475-2.034 5.973-2.783 8.644-4.418a1.769 1.769 0 0 1 2.708 1.72l-.01.072a10.35 10.35 0 0 0-1.161.56q-.322.18-.63.385a1.54 1.54 0 0 0 .62 2.804l.032.005.065.01a15.345 15.345 0 0 1-2.823 4.42 15.8 15.8 0 0 1-11.458 5.027h-.003a37.59 37.59 0 0 1-2.525 7.371h-9.02c-.032-.1-.061-.203-.09-.304a10.249 10.249 0 0 0 2.495-.148c-.669-.822-1.338-1.65-2.007-2.47a.56.56 0 0 1-.042-.049c-.34-.42-.682-.837-1.022-1.258a15.012 15.012 0 0 1 .44-3.825zM181.399 163.034a1.136 1.136 0 0 0 .823-1.968l-.078-.31.031-.074a3.05 3.05 0 0 1 5.627.02c.92 2.217 2.092 4.438 2.38 6.781a9.025 9.025 0 0 1-.157 3.104 36.182 36.182 0 0 0 3.29-15.027 34.922 34.922 0 0 0-.216-3.896q-.18-1.59-.498-3.159a36.6 36.6 0 0 0-7.258-15.512 9.74 9.74 0 0 1-4.051-4.203 7.43 7.43 0 0 1-.676-2.03c.197.025.398.041.595.054l.188.01.023.001a1.125 1.125 0 0 0 .924-1.833l-.255-.315-.392-.481a.56.56 0 0 1-.042-.049l-.446-.55a3.254 3.254 0 0 1 1.067-1.03c1.49-.874 3.547-.27 4.623 1.08 1.08 1.347 1.284 3.239.909 4.923a13.042 13.042 0 0 1-1.804 4.022c.08.104.165.204.246.307a36.837 36.837 0 0 1 3.844 6.091 15.314 15.314 0 0 1 .915-7.112c.875-2.112 2.515-3.89 3.96-5.714 1.734-2.193 5.292-1.236 5.598 1.543l.009.08q-.322.182-.63.386a1.54 1.54 0 0 0 .621 2.804l.031.005a15.331 15.331 0 0 1-.404 2.292 15.785 15.785 0 0 1-7.86 9.894c-.126.064-.248.129-.375.19a37.6 37.6 0 0 1 2.024 9.525 35.662 35.662 0 0 1-.025 5.758l.01-.068a9.423 9.423 0 0 1 3.216-5.441c2.476-2.034 5.974-2.782 8.644-4.417a1.769 1.769 0 0 1 2.709 1.72l-.01.072a10.35 10.35 0 0 0-1.162.56q-.321.18-.63.384a1.54 1.54 0 0 0 .622 2.805l.031.005.065.01a15.345 15.345 0 0 1-2.823 4.42 15.8 15.8 0 0 1-11.458 5.027h-.003a37.59 37.59 0 0 1-2.525 7.371h-9.02c-.033-.1-.062-.204-.09-.304a10.249 10.249 0 0 0 2.495-.149c-.669-.82-1.338-1.648-2.008-2.47a.56.56 0 0 1-.042-.048c-.339-.42-.682-.838-1.021-1.258a15.012 15.012 0 0 1 .44-3.825z"
    fill="#e6e6e6"
    style="stroke-width:.314388"/>
  <path fill="#ffb6b6"
    d="m119.79 216.684 4.293 14.896 3.775-1.123-2.497-15.43z"/>
  <path d="M100.934 225.49a95.622 95.622 0 0 0 2.807 2.347l-.002.007.015.005.005.003.382.16.808-1.414.372-.652.527-.923.965-1.689 5.08-8.891-5.351-2.256-.344.82h-.003l-.17.406-3.196 7.584-.653 1.55-.02.047-.393.926-.338.803-.377.896z"
    fill="#ffb6b6"
    style="stroke-width:.314388"/>
  <path d="M72.969 187.008c.263.623.535 1.245.81 1.862q.765 1.722 1.592 3.407c0 .003.002.003.004.006a7.368 7.368 0 0 0 1.208 1.213c.019.02.04.033.059.05a5.1 5.1 0 0 0 1.076.643l.419.177c.5.206 1 .393 1.498.567q1.33.46 2.655.78c.071.02.143.036.214.053 3.646.855 7.305.988 11.165.867 1.907-.057 3.862-.178 5.888-.304.662-.043 1.326-.083 1.998-.122.05-.003.104-.007.157-.009.96-.056 1.936-.108 2.934-.154 1.256-.057 2.55-.1 3.89-.123l-.384 1.823a14.004 14.004 0 0 1-1.526 3.993c-.814 1.541-1.46 2.76-.954 5.59l.243 1.37a4.492 4.492 0 0 0-.166 3.998l.069.151-5.238 8.87-.34.575 1.915.303 2.355.376 3.993.632 7.59-10.645.364-.508.004-.028 2.922-22.304c.024-.197.04-.398.045-.598a6.837 6.837 0 0 0-1.85-4.953 6.584 6.584 0 0 0-4.633-2.092l-2.012-.057-4.11-.118-2.897-.08-.058-.002-8.54-.243-.213-2.543-.104-.06-3.319-1.849-11.479-6.396-.029-.016-.755-.42-.12.14a3.935 3.935 0 0 0-.104.125 24.185 24.185 0 0 0-2.633 4.165 71.035 71.035 0 0 0-3.247 7.404q-.062.164-.111.3l-.012.026-.028.078c-.467 1.125-.497 2.584-.206 4.08z"
    fill="#2f2e41"
    style="stroke-width:.314388"/>
  <path d="M73.751 178.742c.065-.159.14-.319.218-.473a35.704 35.704 0 0 1 2-3.387 59.006 59.006 0 0 1 2.892-3.98q.809-1.03 1.727-2.134.46-.553.953-1.125a.664.664 0 0 1 .042-.052l.095-.112 11.801 3.524-.006 1.615.856 2.29-.058.068c.003 0 .004-.002 0 0v-.315l.315.315 3.042 3.76h.021l6.8.192 7.007.198 3.764.107a6.58 6.58 0 0 1 4.633 2.092 6.84 6.84 0 0 1 1.85 4.954c-.006.184-.02.372-.041.556l2.173 8.796a53.86 53.86 0 0 1 1.482 16.098l1.26 8.562-.369-.024-5.487-.354-1.449-.092-2.417-5.089c-.276-.58-.53-1.172-.76-1.774a24.81 24.81 0 0 1-.947-3.014l-4.238-17.263q-.81.01-1.603.01-3.668.013-7.016-.142c-7.258-.333-13.443-1.25-18.834-2.795q-2.27-.65-4.359-1.452-.766-.291-1.508-.606c-.116-.047-.23-.094-.344-.144a6.66 6.66 0 0 1-3.92-5.028 6.795 6.795 0 0 1 .425-3.782zM123.342 229.007l4.085-1.218.64-.192.581 2.486 6.408 2.513a1.595 1.595 0 0 1-.217 3.038l-6.906 1.62-1.766-2.18.111 2.568-2.601.61-1.328-8.948z"
    fill="#2f2e41"
    style="stroke-width:.314388"/>
  <path fill="#2f2e41"
    d="m100.24 222.29.242.039.098-.614z"/>
  <path d="m101.784 222.67 3.76 2.007.59.315-1.336 2.175 2.785 6.295a1.595 1.595 0 0 1-2.292 2.006l-6.047-3.709.278-2.79-1.727 1.902-2.278-1.397 5.352-7.292z"
    fill="#2f2e41"
    style="stroke-width:.314388"/>
  <path d="M128.953 108.18a2.86 2.86 0 0 1-3.107 3.096l-4.181 9.266-2.824-4.465 4.404-8.114a2.876 2.876 0 0 1 5.708.217z"
    fill="#ffb6b6"
    style="stroke-width:.314388"/>
  <path d="m118.316 135.744-19.158 14.66a7.22 7.22 0 0 1-10.11-1.346 7.212 7.212 0 0 1 2.464-10.814l19.1-9.69 8.544-16.647 5.738 1.706z"
    fill="#1eb980"
    style="stroke-width:.314388"/>
  <path d="m77.514 153.159-.389 14.224c-5.345 9.03-5.953 13.415-4.473 15.754l21.979-8.03.37-.884 1.148-6.355 2.08-6.558c.367-.685 5.341-4.895.678-12.88l-9.38-12.637-7.517-.43c-1.239 3.18.996 4.915-1.236 5.649-5.049 4.627-4.307 5.38-3.26 12.147z"
    fill="#1eb980"
    style="stroke-width:.314388"/>
  <path d="M62.566 193.092a2.86 2.86 0 0 1 1.925-3.941l.927-10.123 4.127 3.298-1.513 9.107a2.876 2.876 0 0 1-5.466 1.659z"
    fill="#ffb6b6"
    style="stroke-width:.314388"/>
  <path d="m63.62 163.565 13.322-20.11a7.22 7.22 0 0 1 9.996-2.03 7.212 7.212 0 0 1 1.2 11.026L73.25 167.846l-2.64 18.524-5.98.261z"
    fill="#1eb980"
    style="stroke-width:.314388"/>
  <path d="M91.855 118.105c2.657 5.238.921 11.306-4.01 14.496-5.333 3.45-12.257 2.695-14.497-4.01-2.494-7.466-.445-10.67 4.01-14.496 5.222-4.485 11.625-1.65 14.497 4.01z"
    fill="#2f2e41"
    style="stroke-width:.314388"/>
  <path d="M78.773 129.774a8.414 8.414 0 0 0 13.389-10.195l-.073-.096a8.414 8.414 0 0 0-13.314 10.29z"
    fill="#ffb6b6"
    style="stroke-width:.314388"/>
  <path d="M94.43 117.257a11.497 11.497 0 0 1-4.853 2.75 5.028 5.028 0 0 0-1.28-1.06 5.379 5.379 0 0 1 .47 1.519c-.811 1.683-4.124 2.893-7.291 4.131l-4.195-7.402 5.552-3.146c4.461-3.084 9.713-1.768 11.597 3.208zM74.117 114.104c-.755-.349-1.734-.133-2.444.357a5.449 5.449 0 0 0-1.596 1.941 13.917 13.917 0 0 0-1.447 3.944c-.24 1.194-.199 2.637.872 3.26.894.52 2.172.193 2.994-.5.821-.695 1.284-1.67 1.685-2.622.4-.953.78-1.94 1.492-2.73l-.74.345a6.468 6.468 0 0 0 .322-2.203 2.134 2.134 0 0 0-1.138-1.792z"
    fill="#2f2e41"
    style="stroke-width:.314388"/>
  <path d="m83.72 115.074-5.956 3.375a6.98 6.98 0 0 0-2.632 9.514 10.834 10.834 0 0 0 13.853 4.546l-5.443-4.804 7.384 3.762 1.576-.894c-7.918-1.44-9.446-7.65-8.782-15.499z"
    fill="#2f2e41"
    style="stroke-width:.314388"/>
</svg>
