<svg width="1000"
  height="792.751"
  xmlns="http://www.w3.org/2000/svg">
  <path style="fill:#ebf8ff;fill-opacity:1;fill-rule:nonzero;stroke:none"
    d="m7669.853 5390.836-5177.43-400.035 262.223-262.222c181.819-181.82 476.62-181.81 658.42.029l150.22 150.22c31.709 31.71 83.09 31.724 114.8.015l1.493-1.48c32.96-32.97 33.017-85.914.337-118.594-50.35-50.33-398.39-398.361-476.69-476.661-165.84-165.82-165.854-434.714-.015-600.543 165.83-165.84 434.714-165.84 600.543 0l1454.813 1454.827 320.319-43.637-529.601-529.616c-231.16-231.16-231.16-605.947 0-837.116 231.17-231.17 605.971-231.17 837.13 0l809.827 809.811c35.18 35.18 92.203 35.18 127.383 0 35.17-35.17 35.17-92.198 0-127.368L5624.355 3209.18c-130.66-130.649-130.66-342.486 0-473.145 130.66-130.66 342.49-130.66 473.16 0l830.76 830.759c37.689 37.69 98.799 37.69 136.479 0 37.7-37.69 37.7-98.805 0-136.495l-14.546-14.546c-275.9-275.899-275.9-723.225 0-999.114l619.645-619.645v3253.558l-459.933-479.928c-71.94-75.07-191.235-77.244-265.855-4.834l-37.632 36.519-.117-.117-8.188 8.174c-15.65 15.66-33.162 28.351-51.812 38.071-79.69 41.54-180.298 28.848-247.208-38.071l-298.39-298.39c-30.58-30.58-80.142-30.58-110.712 0-30.58 30.57-30.58 80.148 0 110.728l110.713 110.713c19.45 19.46 19.45 51 0 70.46-19.46 19.45-51.01 19.45-70.46 0l-325.444-325.446c-56.51-56.52-148.15-56.52-204.669 0-56.51 56.51-56.51 148.134 0 204.654l608.967 608.952c0 6.214 941.47 73.612 1090.666 84.272.085.088 2.534 2.856 2.593 2.915.5.5 13.653-1.893 15.337-1.61 7.62.543 69.038 5.009 69.038 5.009l-11.118-11.118c65.537-4.794 124.055-10.911 194.224-20.479zm-462.13-1559.71c45.98 0 83.233-37.263 83.233-83.233 0-45.98-37.253-83.248-83.233-83.248-45.97 0-83.232 37.268-83.232 83.248 0 45.97 37.262 83.232 83.232 83.232z"
    transform="matrix(.13333 0 0 -.13333 0 666.667)"/>
  <path d="M252.562 24.28c0 47.814-38.761 86.575-86.574 86.575-47.815 0-86.577-38.761-86.577-86.576 0-47.814 38.762-86.574 86.577-86.574 47.813 0 86.574 38.76 86.574 86.574m678.697 666.586c0 30.002-24.321 54.326-54.324 54.326-30.002 0-54.324-24.324-54.324-54.326s24.322-54.323 54.324-54.323c30.003 0 54.324 24.32 54.324 54.324"
    style="fill:#feebc8;fill-opacity:1;fill-rule:nonzero;stroke:none;stroke-width:.133333"/>
  <path d="M2321.63 3891.64c-165.53 0-299.66 134.13-299.66 299.58 0 165.46 134.13 299.58 299.66 299.58 165.45 0 299.58-134.12 299.58-299.58 0-165.45-134.13-299.58-299.58-299.58zm0 672.7c-205.76 0-373.2-167.37-373.2-373.12s167.44-373.19 373.2-373.19c205.75 0 373.11 167.44 373.11 373.19s-167.36 373.12-373.11 373.12"
    style="fill:#ebf8ff;fill-opacity:1;fill-rule:nonzero;stroke:none"
    transform="matrix(.13333 0 0 -.13333 0 666.667)"/>
  <path d="M951.364 392.712c0 12.933-10.484 23.418-23.417 23.418-12.935 0-23.419-10.485-23.419-23.418 0-12.934 10.484-23.418 23.419-23.418 12.933 0 23.417 10.484 23.417 23.418M303.541 443.95c0 6.199-5.026 11.224-11.224 11.224-6.2 0-11.224-5.025-11.224-11.224 0-6.198 5.024-11.225 11.224-11.225 6.198 0 11.224 5.027 11.224 11.225m24.03-24.032c0 6.199-5.024 11.224-11.224 11.224-6.198 0-11.224-5.025-11.224-11.224 0-6.198 5.026-11.224 11.224-11.224 6.2 0 11.224 5.026 11.224 11.224M32.333 269.935c0 12.933-10.485 23.418-23.418 23.418-12.934 0-23.418-10.485-23.418-23.418 0-12.934 10.484-23.418 23.418-23.418 12.933 0 23.418 10.484 23.418 23.418"
    style="fill:#feebc8;fill-opacity:1;fill-rule:nonzero;stroke:none;stroke-width:.133333"/>
  <path d="M780.054 583.984a6.008 6.008 0 0 1 8.493 0l18.086 18.086a6.007 6.007 0 0 1-8.494 8.495l-18.085-18.087a6.007 6.007 0 0 1 0-8.494"
    style="fill:#edf2f7;fill-opacity:1;fill-rule:nonzero;stroke:none;stroke-width:.13333"/>
  <path d="M806.633 583.984a6.004 6.004 0 0 1 0 8.494l-18.086 18.086a6.006 6.006 0 1 1-8.493-8.494l18.085-18.086a6.01 6.01 0 0 1 8.494 0M276.016 296.932a3.905 3.905 0 0 1 5.525 0l11.764 11.762a3.908 3.908 0 0 1-5.527 5.525l-11.762-11.763a3.906 3.906 0 0 1 0-5.524"
    style="fill:#edf2f7;fill-opacity:1;fill-rule:nonzero;stroke:none;stroke-width:.13333"/>
  <path d="M293.305 296.932a3.906 3.906 0 0 1 0 5.524l-11.764 11.763a3.908 3.908 0 0 1-5.525-5.525l11.762-11.762a3.907 3.907 0 0 1 5.527 0m265.93-109.524c0 14.052-11.391 25.443-25.444 25.443-14.052 0-25.444-11.391-25.444-25.443 0-14.053 11.392-25.445 25.444-25.445 14.053 0 25.444 11.392 25.444 25.445m-471.57-10.826c0 7.798-6.322 14.122-14.12 14.122-7.8 0-14.122-6.324-14.122-14.122 0-7.799 6.322-14.123 14.122-14.123 7.798 0 14.12 6.324 14.12 14.123m576.69 82.284a4.208 4.208 0 1 1-8.415 0 4.208 4.208 0 0 1 8.415 0m0 21.985a4.208 4.208 0 1 1-8.415 0 4.208 4.208 0 0 1 8.415 0m21.413-21.985a4.21 4.21 0 1 1-8.418-.002 4.21 4.21 0 0 1 8.418.002m0 21.985a4.21 4.21 0 1 1-8.418-.002 4.21 4.21 0 0 1 8.418.002M65.111 219.174a4.208 4.208 0 1 1-8.415-.003 4.208 4.208 0 0 1 8.415.003m0 21.983a4.208 4.208 0 1 1-8.416 0 4.208 4.208 0 0 1 8.416 0m21.411-21.983a4.207 4.207 0 0 1-8.415 0 4.208 4.208 0 1 1 8.415 0m0 21.983a4.207 4.207 0 1 1-8.414.001 4.207 4.207 0 0 1 8.414 0m-64.751-21.984a4.207 4.207 0 1 1-8.415-.002 4.207 4.207 0 0 1 8.415.002m0 21.983a4.208 4.208 0 1 1-8.416 0 4.208 4.208 0 0 1 8.416 0m21.41-21.983a4.207 4.207 0 1 1-8.414-.002 4.207 4.207 0 0 1 8.415.002m0 21.983a4.208 4.208 0 1 1-8.416 0 4.208 4.208 0 0 1 8.416 0m836.153 344.94a4.208 4.208 0 1 1-8.416.002 4.208 4.208 0 0 1 8.416-.003m0 21.985a4.207 4.207 0 1 1-8.414 0 4.207 4.207 0 1 1 8.414 0m21.413-21.985a4.21 4.21 0 1 1-8.418 0 4.21 4.21 0 0 1 8.418 0m0 21.985a4.208 4.208 0 1 1-8.418 0 4.208 4.208 0 0 1 8.418 0m-64.753-21.985a4.208 4.208 0 1 1-8.413.003 4.208 4.208 0 0 1 8.413-.003m0 21.985a4.208 4.208 0 1 1-8.415 0 4.208 4.208 0 0 1 8.415 0m21.412-21.985a4.21 4.21 0 0 1-4.208 4.21 4.21 4.21 0 0 1 0-8.417 4.208 4.208 0 0 1 4.208 4.207m0 21.985a4.208 4.208 0 1 1-8.416 0 4.208 4.208 0 0 1 8.416 0m108.529-21.985a4.21 4.21 0 0 1-4.208 4.21 4.21 4.21 0 0 1 0-8.417 4.208 4.208 0 0 1 4.208 4.207m0 21.985a4.208 4.208 0 1 1-8.416 0 4.208 4.208 0 0 1 8.416 0m21.411-21.985a4.21 4.21 0 1 1-8.418 0 4.21 4.21 0 0 1 8.418 0m0 21.985a4.209 4.209 0 1 1-8.417-.002 4.209 4.209 0 0 1 8.417.002m-64.751-21.985a4.209 4.209 0 1 1-8.414.001 4.209 4.209 0 0 1 8.414 0m0 21.984a4.209 4.209 0 1 1-8.418-.002 4.209 4.209 0 0 1 8.418.002m21.41-21.985a4.21 4.21 0 0 1-4.208 4.21 4.209 4.209 0 0 1 0-8.417 4.208 4.208 0 0 1 4.208 4.207m0 21.985a4.208 4.208 0 1 1-8.416 0 4.208 4.208 0 0 1 8.416 0m-623.642-30.848c0 5.74-4.653 10.392-10.393 10.392-5.74 0-10.392-4.652-10.392-10.392 0-5.74 4.652-10.393 10.392-10.393 5.74 0 10.393 4.653 10.393 10.393m559.914-293.39c0 5.74-4.652 10.392-10.392 10.392-5.738 0-10.391-4.652-10.391-10.392 0-5.74 4.653-10.392 10.391-10.392 5.74 0 10.392 4.652 10.392 10.392"
    style="fill:#edf2f7;fill-opacity:1;fill-rule:nonzero;stroke:none;stroke-width:.13333"/>
  <path d="m6459.01 3643.75 1271.82 1271.82M4186.3 4423.75l665.93 665.93M-134.738 829.582 1157.84 2122.16m112.71-2876.691L2429.11 404.012M-769.508 560.859 389.039 1719.4"
    style="fill:none;stroke:#fff;stroke-width:30;stroke-linecap:round;stroke-linejoin:miter;stroke-miterlimit:10;stroke-dasharray:none;stroke-opacity:1"
    transform="matrix(.13333 0 0 -.13333 0 666.667)"/>
  <path d="M1793.44 2997.84c0-86.97-70.5-157.48-157.48-157.48-86.97 0-157.47 70.51-157.47 157.48 0 86.97 70.5 157.48 157.47 157.48 86.98 0 157.48-70.51 157.48-157.48M4644.15 3798.12c0-45.98-37.27-83.24-83.25-83.24-45.96 0-83.24 37.26-83.24 83.24 0 45.97 37.28 83.24 83.24 83.24 45.98 0 83.25-37.27 83.25-83.24"
    style="fill:#ebf8ff;fill-opacity:1;fill-rule:nonzero;stroke:none"
    transform="matrix(.13333 0 0 -.13333 0 666.667)"/>
  <path d="M941.871 1079.29c0-112.97-91.57-204.548-204.543-204.548-112.969 0-204.539 91.578-204.539 204.548s91.57 204.54 204.539 204.54c112.973 0 204.543-91.57 204.543-204.54"
    style="fill:#fff;fill-opacity:1;fill-rule:nonzero;stroke:none"
    transform="matrix(.13333 0 0 -.13333 0 666.667)"/>
  <path d="m2992.43-156 1446.78 1446.79M-920.941-940.859 525.848 505.93M4650.09 5404.44 3478.27 4232.61m-1253.29-157.79-293.9-293.9m1976-3343.209L4189.2 719.82"
    style="fill:none;stroke:#bee3f8;stroke-width:30;stroke-linecap:round;stroke-linejoin:miter;stroke-miterlimit:10;stroke-dasharray:none;stroke-opacity:1"
    transform="matrix(.13333 0 0 -.13333 0 666.667)"/>
  <path d="M257.127 763.128c-41.263 0-74.7-33.435-74.7-74.678 0-41.246 33.437-74.68 74.7-74.68 41.243 0 74.679 33.434 74.679 74.68 0 41.243-33.436 74.678-74.68 74.678zm0-167.69c-51.292 0-93.031 41.722-93.031 93.012 0 51.289 41.74 93.028 93.03 93.028s93.01-41.74 93.01-93.028c0-51.29-41.72-93.011-93.01-93.011"
    style="fill:#ebf8ff;fill-opacity:1;fill-rule:nonzero;stroke:none;stroke-width:.249279"/>
</svg>
