<svg viewBox="0 0 1000 666.667"
  xmlns="http://www.w3.org/2000/svg">
  <path style="fill:#fff5f5;fill-opacity:1;fill-rule:nonzero;stroke:none;stroke-width:.1"
    d="M766.985 539.084 249.243 499.08l26.222-26.222c18.182-18.182 47.662-18.181 65.842.003l15.02 15.022a8.118 8.118 0 0 0 11.482.001l.15-.148c3.295-3.297 3.3-8.591.032-11.859-5.035-5.033-39.84-39.836-47.67-47.666-16.583-16.582-16.585-43.471 0-60.054 16.582-16.584 43.47-16.584 60.054 0l145.482 145.482 32.032-4.364-52.96-52.961c-23.116-23.116-23.116-60.594 0-83.711 23.117-23.117 60.597-23.117 83.713 0l80.982 80.98a9.007 9.007 0 0 0 12.738 0 9.007 9.007 0 0 0 0-12.736L562.436 320.918c-13.066-13.065-13.066-34.25 0-47.315 13.066-13.066 34.248-13.066 47.315 0l83.076 83.077c3.77 3.769 9.88 3.769 13.648 0a9.65 9.65 0 0 0 0-13.65l-1.454-1.454c-27.59-27.59-27.59-72.323 0-99.911l61.964-61.965v325.355l-45.993-47.992c-7.194-7.507-19.122-7.725-26.584-.484l-3.765 3.652-.012-.012-.818.818a21.115 21.115 0 0 1-5.182 3.807c-7.969 4.154-18.03 2.885-24.72-3.807l-29.84-29.84a7.827 7.827 0 0 0-11.07 0 7.829 7.829 0 0 0 0 11.074l11.07 11.07a4.983 4.983 0 0 1-7.046 7.047l-32.544-32.545c-5.65-5.652-14.814-5.652-20.466 0-5.651 5.651-5.651 14.814 0 20.466l60.896 60.895c0 .621 94.147 7.362 109.067 8.428l.259.29c.234.235 1.876.212 4.279.04l4.158.302-.62-.62c5.66-.55 13.074-1.485 18.93-2.266v23.706z"
    transform="matrix(1.33333 0 0 -1.33333 0 666.667)"/>
  <path d="M189.422 499.792c0-35.861-29.071-64.932-64.931-64.932-35.861 0-64.933 29.071-64.933 64.932 0 35.861 29.072 64.931 64.933 64.931 35.86 0 64.931-29.07 64.931-64.931M698.446-.149c0-22.501-18.241-40.744-40.743-40.744-22.502 0-40.743 18.243-40.743 40.744 0 22.502 18.241 40.743 40.743 40.743 22.502 0 40.743-18.24 40.743-40.743"
    style="fill:#feebc8;fill-opacity:1;fill-rule:nonzero;stroke:none;stroke-width:.1"
    transform="matrix(1.33333 0 0 -1.33333 0 666.667)"/>
  <path d="M232.163 389.164c-16.553 0-29.966 13.413-29.966 29.958 0 16.546 13.413 29.958 29.966 29.958 16.545 0 29.958-13.412 29.958-29.958 0-16.545-13.413-29.958-29.958-29.958zm0 67.27c-20.576 0-37.32-16.737-37.32-37.312s16.744-37.319 37.32-37.319c20.575 0 37.311 16.744 37.311 37.319 0 20.575-16.736 37.312-37.311 37.312"
    style="fill:#fed7d7;fill-opacity:1;fill-rule:nonzero;stroke:none;stroke-width:.1"
    transform="matrix(1.33333 0 0 -1.33333 0 666.667)"/>
  <path d="M710.525 205.467c0-9.7-7.863-17.564-17.563-17.564-9.701 0-17.564 7.864-17.564 17.564s7.863 17.563 17.564 17.563c9.7 0 17.563-7.863 17.563-17.563M224.656 167.038a8.418 8.418 0 0 0-16.836 0 8.418 8.418 0 1 0 16.836 0M242.679 185.062a8.418 8.418 0 1 0-16.836 0 8.418 8.418 0 0 0 16.836 0M21.25 297.55c0-9.7-7.864-17.564-17.564-17.564s-17.563 7.864-17.563 17.564 7.863 17.563 17.563 17.563S21.25 307.25 21.25 297.55"
    style="fill:#feebc8;fill-opacity:1;fill-rule:nonzero;stroke:none;stroke-width:.1"
    transform="matrix(1.33333 0 0 -1.33333 0 666.667)"/>
  <path style="fill:#fff5f5;fill-opacity:1;fill-rule:nonzero;stroke:none;stroke-width:.1"
    d="M101.055 281.536c-12.043 0-24.087-4.594-33.275-13.783l-81.97-81.97C-6.885 178.48-132.68-3.312-132.68-3.312H34.635c10.635 10.08 52.912 52.78 71.077 71.174 4.328 4.383 11.391 4.4 15.747.044 4.337-4.337 4.337-11.367 0-15.703l-16.803-16.805a5.568 5.568 0 0 1 0-7.876 5.571 5.571 0 0 1 7.878 0l7.003 7.001c4.753 4.755 12.461 4.755 17.215 0 4.752-4.752 4.752-12.46 0-17.214a5.157 5.157 0 0 1 0-7.295l13.324-13.326h325.116l-37.525 37.526c-38.44 38.44-100.765 38.44-139.205 0l-1.816-1.817a8.036 8.036 0 0 0-11.363 11.362l21.912 21.913c14.343 14.343 14.343 37.597 0 51.94-14.343 14.343-37.598 14.343-51.942 0l-81.156-81.156a9.182 9.182 0 0 0-12.986 12.984l33.275 33.275c16.584 16.584 16.584 43.474 0 60.057-16.584 16.584-43.471 16.584-60.055 0l-8.119-8.116c-8.068-8.068-21.146-8.068-29.214 0-8.07 8.068-8.07 21.15 0 29.218l37.333 37.333c18.377 18.377 18.377 48.17 0 66.547-9.19 9.189-21.233 13.783-33.276 13.783z"
    transform="matrix(1.33333 0 0 -1.33333 0 666.667)"/>
  <g style="fill:#e8eaf6;fill-opacity:1;stroke:#e8eaf6;stroke-opacity:1">
    <path d="M207.017 305.809a2.929 2.929 0 0 0 4.144 0l8.823-8.822a2.93 2.93 0 0 0 0-4.144 2.932 2.932 0 0 0-4.145 0l-8.822 8.823a2.93 2.93 0 0 0 0 4.143"
      style="fill:#e8eaf6;fill-opacity:1;fill-rule:nonzero;stroke:#e8eaf6;stroke-width:.1;stroke-opacity:1"
      transform="matrix(1.33333 0 0 -1.33333 0 666.667)"/>
    <path d="M219.984 305.809a2.93 2.93 0 0 0 0-4.143l-8.823-8.823a2.93 2.93 0 0 0-4.144 4.144l8.822 8.822a2.93 2.93 0 0 0 4.145 0"
      style="fill:#e8eaf6;fill-opacity:1;fill-rule:nonzero;stroke:#e8eaf6;stroke-width:.1;stroke-opacity:1"
      transform="matrix(1.33333 0 0 -1.33333 0 666.667)"/>
  </g>
  <path d="M419.437 387.954c0-10.539-8.544-19.083-19.084-19.083-10.539 0-19.083 8.544-19.083 19.083 0 10.54 8.544 19.084 19.083 19.084 10.54 0 19.084-8.544 19.084-19.084M65.75 396.074c0-5.849-4.741-10.592-10.59-10.592-5.85 0-10.592 4.743-10.592 10.592s4.742 10.592 10.592 10.592c5.849 0 10.59-4.743 10.59-10.592"
    style="fill:#e8eaf6;fill-opacity:1;fill-rule:nonzero;stroke:none;stroke-width:.1"
    transform="matrix(1.33333 0 0 -1.33333 0 666.667)"/>
  <g style="fill:#e8eaf6;fill-opacity:1;stroke:#e8eaf6;stroke-opacity:1">
    <path d="M498.279 334.359a3.155 3.155 0 1 0-6.312 0 3.156 3.156 0 0 0 6.312 0M498.279 317.87a3.155 3.155 0 1 0-6.312 0 3.156 3.156 0 0 0 6.312 0M514.339 334.359a3.157 3.157 0 1 0-6.314.002 3.157 3.157 0 0 0 6.314-.002M514.339 317.87a3.157 3.157 0 1 0-6.314.002 3.157 3.157 0 0 0 6.314-.002"
      style="fill:#e8eaf6;fill-opacity:1;fill-rule:nonzero;stroke:#e8eaf6;stroke-width:.1;stroke-opacity:1"
      transform="matrix(1.33333 0 0 -1.33333 0 666.667)"/>
  </g>
  <g style="stroke-width:.99975002;stroke-dasharray:none;fill:#e8eaf6;fill-opacity:1;stroke:#e8eaf6;stroke-opacity:1">
    <path d="M48.835 364.129a3.156 3.156 0 1 0-6.312.002 3.156 3.156 0 0 0 6.312-.002M48.835 347.641a3.156 3.156 0 1 0-6.312 0 3.156 3.156 0 0 0 6.312 0M64.893 364.129a3.155 3.155 0 1 0-6.31 0 3.155 3.155 0 0 0 6.31 0M64.893 347.641a3.156 3.156 0 1 0-6.31 0 3.156 3.156 0 0 0 6.31 0M16.328 364.129a3.156 3.156 0 1 0-6.31.001 3.156 3.156 0 0 0 6.31-.001M16.328 347.641a3.156 3.156 0 1 0-6.311 0 3.156 3.156 0 0 0 6.311 0M32.387 364.129a3.156 3.156 0 1 0-6.311.001 3.156 3.156 0 0 0 6.311-.001M32.387 347.641a3.156 3.156 0 1 0-6.312 0 3.156 3.156 0 0 0 6.312 0"
      style="fill:#e8eaf6;fill-opacity:1;fill-rule:nonzero;stroke:#e8eaf6;stroke-width:.99975002;stroke-dasharray:none;stroke-opacity:1"
      transform="matrix(1.33333 0 0 -1.33333 0 666.667)"/>
  </g>
  <g style="fill:#e8eaf6;fill-opacity:1;stroke:#e8eaf6;stroke-opacity:1">
    <path d="M585.055 90.515a4.506 4.506 0 0 0 6.37 0L604.99 76.95a4.506 4.506 0 0 0-6.371-6.371l-13.564 13.565a4.505 4.505 0 0 0 0 6.37"
      style="fill:#e8eaf6;fill-opacity:1;fill-rule:nonzero;stroke:#e8eaf6;stroke-width:.1;stroke-opacity:1"
      transform="matrix(1.33333 0 0 -1.33333 0 666.667)"/>
    <path d="M604.99 90.515a4.503 4.503 0 0 0 0-6.37l-13.565-13.566a4.506 4.506 0 0 0-6.37 6.371l13.564 13.565a4.507 4.507 0 0 0 6.371 0M659.518 88.93a3.156 3.156 0 1 0-6.312-.002 3.156 3.156 0 0 0 6.312.002M659.518 72.441a3.155 3.155 0 1 0-6.311 0 3.155 3.155 0 1 0 6.311 0M675.578 88.93a3.157 3.157 0 1 0-6.314 0 3.157 3.157 0 0 0 6.314 0M675.578 72.441a3.156 3.156 0 1 0-6.312 0 3.156 3.156 0 0 0 6.312 0M627.012 88.93a3.156 3.156 0 1 0-6.31-.002 3.156 3.156 0 0 0 6.31.002M627.012 72.441a3.156 3.156 0 1 0-6.312 0 3.156 3.156 0 0 0 6.312 0M643.071 88.93a3.157 3.157 0 1 0-6.314 0 3.157 3.157 0 0 0 6.314 0M643.071 72.441a3.156 3.156 0 1 0-6.312 0 3.156 3.156 0 0 0 6.312 0M724.47 88.93a3.157 3.157 0 1 0-6.314 0 3.157 3.157 0 0 0 6.314 0M724.47 72.441a3.156 3.156 0 1 0-6.312 0 3.156 3.156 0 0 0 6.312 0M740.529 88.93a3.157 3.157 0 1 0-6.314 0 3.157 3.157 0 0 0 6.314 0M740.529 72.441a3.156 3.156 0 1 0-6.312 0 3.156 3.156 0 0 0 6.312 0M691.964 88.93a3.157 3.157 0 1 0-6.31 0 3.157 3.157 0 0 0 6.31 0M691.964 72.441a3.157 3.157 0 1 0-6.313.002 3.157 3.157 0 0 0 6.313-.002M708.022 88.93a3.157 3.157 0 1 0-6.309 0 3.157 3.157 0 0 0 6.309 0M708.022 72.441a3.156 3.156 0 1 0-6.312 0 3.156 3.156 0 0 0 6.312 0"
      style="fill:#e8eaf6;fill-opacity:1;fill-rule:nonzero;stroke:#e8eaf6;stroke-width:.1;stroke-opacity:1"
      transform="matrix(1.33333 0 0 -1.33333 0 666.667)"/>
  </g>
  <path d="M240.279 95.578a7.794 7.794 0 0 0-7.795-7.794 7.793 7.793 0 0 0-7.794 7.794 7.795 7.795 0 0 0 15.589 0M660.225 315.626a7.794 7.794 0 1 0-15.588 0 7.794 7.794 0 0 0 15.588 0"
    style="fill:#e8eaf6;fill-opacity:1;fill-rule:nonzero;stroke:none;stroke-width:.1"
    transform="matrix(1.33333 0 0 -1.33333 0 666.667)"/>
  <path d="m645.901 364.375 127.182 127.182M418.63 442.375l66.593 66.593M-13.474 82.958l129.258 129.258M127.055-75.453 242.911 40.4M-76.95 56.086 38.903 171.94"
    style="fill:none;stroke:#fff;stroke-width:3;stroke-linecap:round;stroke-linejoin:miter;stroke-miterlimit:10;stroke-dasharray:none;stroke-opacity:1"
    transform="matrix(1.33333 0 0 -1.33333 0 666.667)"/>
  <path d="M179.344 299.784c0-8.697-7.05-15.748-15.748-15.748-8.697 0-15.747 7.051-15.747 15.748s7.05 15.748 15.747 15.748c8.698 0 15.748-7.051 15.748-15.748M464.415 379.812a8.324 8.324 0 0 0-8.325-8.324 8.324 8.324 0 1 0 8.325 8.324"
    style="fill:#fed7d7;fill-opacity:1;fill-rule:nonzero;stroke:none;stroke-width:.1"
    transform="matrix(1.33333 0 0 -1.33333 0 666.667)"/>
  <path d="M729.096 374.789a8.324 8.324 0 1 0-16.647 0 8.323 8.323 0 0 0 8.323 8.323 8.323 8.323 0 0 0 8.324-8.323M94.187 107.929c0-11.297-9.157-20.455-20.454-20.455s-20.454 9.158-20.454 20.455c0 11.297 9.157 20.454 20.454 20.454s20.454-9.157 20.454-20.454"
    style="fill:#fff;fill-opacity:1;fill-rule:nonzero;stroke:none;stroke-width:.1"
    transform="matrix(1.33333 0 0 -1.33333 0 666.667)"/>
  <path d="M482.416-56.412c-31.035 0-56.183 25.147-56.183 56.169 0 31.021 25.148 56.17 56.183 56.17 31.021 0 56.169-25.149 56.169-56.17 0-31.022-25.148-56.17-56.169-56.17zm0 126.125c-38.577 0-69.97-31.38-69.97-69.956 0-38.577 31.393-69.97 69.97-69.97s69.957 31.393 69.957 69.97c0 38.576-31.38 69.956-69.957 69.956"
    style="fill:#fed7d7;fill-opacity:1;fill-rule:nonzero;stroke:none;stroke-width:.1"
    transform="matrix(1.33333 0 0 -1.33333 0 666.667)"/>
  <path d="m299.243-15.6 144.678 144.679M-92.094-94.086 52.585 50.593M465.009 540.444 347.827 423.261M222.498 407.482l-29.39-29.39M390.708 43.771l28.212 28.211"
    style="fill:#e8eaf6;stroke:#e8eaf6;stroke-width:3;stroke-linecap:round;stroke-linejoin:miter;stroke-miterlimit:10;stroke-dasharray:none;stroke-opacity:1;fill-opacity:1"
    transform="matrix(1.33333 0 0 -1.33333 0 666.667)"/>
</svg>
