<svg data-name="Layer 1"
  width="829.561"
  height="641.776"
  xmlns="http://www.w3.org/2000/svg">
  <path d="M1.19 629.03h340.294a1.191 1.191 0 0 0 0-2.382H1.191a1.19 1.19 0 0 0 0 2.381z"
    fill="#3f3d56"/>
  <circle cx="-161.803"
    cy="451.646"
    r="33"
    fill="#2f2e41"
    transform="scale(-1 1)"/>
  <circle cx="-161.132"
    cy="463"
    r="24.561"
    fill="#a0616a"
    transform="scale(-1 1)"
    style="fill:#c9978f;fill-opacity:1"/>
  <path d="M123.802 498.646s45-8 74 2l-8.5 67.5 2 11-60-2 4-11z"
    fill="#a0616a"
    style="fill:#c99789;fill-opacity:1"/>
  <path d="M155.073 571.485a302.541 302.541 0 0 0 31-1.964 8.492 8.492 0 0 0 7.56-8.646l-.73-31.567-.084-.123c-8.694-12.594-4.46-21.792-1.201-26.744a6.397 6.397 0 0 0 1.052-3.522c.5-.695.612.405.302-.38a2.51 2.51 0 0 0-1.837-1.537l-4.964-.992a2.499 2.499 0 0 0-2.858 1.651c-1.668 4.977-8.17 20.991-23.067 20.988-12.444-.003-17.088-17.612-17.366-21.681a2.503 2.503 0 0 0-2.493-2.322h-6.2a2.617 2.617 0 0 0-2.067.934 2.48 2.48 0 0 0-.244 2.751c7.077 13.01-3.265 33.596-3.37 33.802l-.067.13 2.918 30.293a8.54 8.54 0 0 0 6.575 7.476c4.512 1.062 10.61 1.453 17.141 1.453z"
    fill="#ccc"/>
  <path d="M212.178 641.776c6.72 0 12.872-.74 17.76-2.49 5.809-2.079 9.457-5.441 10.843-9.995a13.2 13.2 0 0 0-1.607-11.673c-8.595-12.87-38.42-16.497-42.423-16.928l-2.12-17.667a8.53 8.53 0 0 0-8.307-7.487l-50.232-.784a8.421 8.421 0 0 0-8.496 6.978l-2.853 15.7 32.938 15.97-4.98 13.945.324.217c9.64 6.427 37.364 14.213 59.153 14.214z"
    fill="#2f2e41"/>
  <path d="M129.302 595.146s-46-6-43 18 38 41 91 0l-6-12s-30 8-42 2z"
    fill="#2f2e41"/>
  <path d="M170.302 604.146s0-12 10-11 28 2 28 2 6 4-2 6-32 12-32 12zm-17-2s0-12-10-11-28 2-28 2-6 4 2 6 32 12 32 12z"
    fill="#a0616a"
    style="fill:#c9978f;fill-opacity:1"/>
  <path d="m93.382 599.873 14.92-51.727s3-18 6-35 14-15 14-15l2 1v27l-2 25-19.965 54.904a10.501 10.501 0 1 1-14.957-6.177zm100.92-99.727s11-2 14 15 6 35 6 35l14.922 51.727a10.496 10.496 0 1 1-14.956 6.177l-19.965-54.904-2-25v-24.764a3.618 3.618 0 0 1 2-3.236z"
    fill="#a0616a"
    style="fill:#c9978f;fill-opacity:1"/>
  <path d="M185.446 447.912a73.041 73.041 0 0 1-31.6 10.412l3.332-3.991a24.477 24.477 0 0 1-7.561 1.5 8.28 8.28 0 0 1-6.75-3.158 7.702 7.702 0 0 1-.516-7.115 14.589 14.589 0 0 1 4.59-5.739 27.323 27.323 0 0 1 25.43-4.545 16.33 16.33 0 0 1 7.596 4.873 9.236 9.236 0 0 1 1.862 8.56"
    fill="#2f2e41"/>
  <path d="M158.696 422.309a75.485 75.485 0 0 1 27.463-17.76c6.638-2.459 13.864-3.978 20.805-2.582 6.941 1.396 13.504 6.199 15.44 13.008 1.583 5.569-.052 11.564-2.509 16.806-2.457 5.242-5.737 10.102-7.724 15.54a35.468 35.468 0 0 0 35.69 47.562c-6.82.914-13.105 4.119-19.771 5.825-6.667 1.706-14.534 1.59-19.487-3.185-5.24-5.053-5.346-13.268-5.093-20.543l1.13-32.445c.193-5.515.357-11.208-1.632-16.355-1.99-5.147-6.717-9.656-12.235-9.61-4.183.036-7.885 2.57-11.239 5.069-3.354 2.499-6.904 5.164-11.07 5.536-4.166.372-8.924-2.711-8.612-6.882"
    fill="#2f2e41"/>
  <path d="M354.06 0a35.54 35.54 0 0 0-35.5 35.5v538a35.54 35.54 0 0 0 35.5 35.5h440a35.54 35.54 0 0 0 35.5-35.5v-538A35.54 35.54 0 0 0 794.06 0Zm220.002 14.5a12 12 0 0 1 12 12 12 12 0 0 1-12 12 12 12 0 0 1-12-12 12 12 0 0 1 12-12zM367.062 56h414a16.519 16.519 0 0 1 16.5 16.5v496a16.519 16.519 0 0 1-16.5 16.5h-414a16.519 16.519 0 0 1-16.5-16.5v-496a16.519 16.519 0 0 1 16.5-16.5z"
    style="fill:#e2e8f0;fill-opacity:1"/>
  <path d="M498.332 232.466c6.726-16.101 17.172-29.532 32.336-38.434 15.93-9.353 34.117-17.141 52.439-19.95a136.799 136.799 0 0 1 54.964 3.076c8.64 2.238 18.165 4.837 25.453 10.195 6.966 5.122 11.738 13.548 15.623 21.117 3.722 7.251 6.042 15.237 4.027 23.359-1.856 7.484-7.047 13.718-12.984 18.408-5.304 4.19-12.721 9.737-19.815 7.14a5.53 5.53 0 0 1-1.146-.578c-12.251 3.728-24.432-1.694-37.008-5.938-7.643-2.58-15.328-3.884-23.004-.665-7.563 3.173-13.72 9.406-18.23 16.123-4.293 6.39-7.118 13.645-11.827 19.77a28.093 28.093 0 0 1-19.858 11.214c-15.197 1.7-35.365.135-44.12-14.253-9.328-15.332-3.224-35.324 3.15-50.584zm155.117-23.547-6.762.767a25.003 25.003 0 0 1 11.653 5.464 29.688 29.688 0 0 1 3.523 3.52c-.03-.104-.05-.201-.082-.305a15.725 15.725 0 0 0-8.332-9.446zm-75.667 14.393a3.868 3.868 0 0 1-1.7.726c-.073.011-.145.025-.217.037q-.629.36-1.26.715c.047.066.082.14.128.207 1.03-.106 2.061-.209 3.092-.312a5.424 5.424 0 0 1-.044-1.373zm-27.277 32.254a4.515 4.515 0 0 1 .6.79l.304-.44a2.985 2.985 0 0 0-.903-.35zm-17.615 19.065-3.064.403a3.871 3.871 0 0 1 .415 1.063c.724.023 1.454.035 2.184.038zm-14.795-8.694-1.233-.211a4.487 4.487 0 0 1-1.801-.716c-.002.072-.008.145-.011.217a18.43 18.43 0 0 1-.063.903c.1.177.202.352.31.526l2.8-.719zm52.537-54.332a5.884 5.884 0 0 1 1.642-.965 70.962 70.962 0 0 1 8.87-2.774q.678-.636 1.322-1.306a71.41 71.41 0 0 0-7.536 1.917 87.75 87.75 0 0 0-9.326 3.587q2.517-.28 5.03-.459zm-28.3 1.896q2.215-1.384 4.459-2.717-2.3 1.295-4.534 2.716zm-30.514 13.927a106.464 106.464 0 0 1 13.089-13.405 6.516 6.516 0 0 1-.542-2.672 67.264 67.264 0 0 0-12.547 16.077zm56.909-39.642c.625-.144 1.25-.29 1.877-.431 5.95-1.343 12.01-2.79 18.125-4.017-.328.039-.656.07-.983.112a105.589 105.589 0 0 0-19.02 4.336zM696.104 498.413h.014a1.86 1.86 0 0 1 1.202.448l11.64 10.771v-10.506a.713.713 0 0 1 .713-.713h2.882a.713.713 0 0 1 .713.713v25.18a.713.713 0 0 1-.714.714h-2.868a.714.714 0 0 1-.713-.713V513.87l-11.64 10.716a1.848 1.848 0 0 1-1.203.433 1.889 1.889 0 0 1-1.916-1.86v-22.83a1.902 1.902 0 0 1 1.89-1.917zm-263.263.07h2.812a.713.713 0 0 1 .714.713v10.45l11.639-10.715a1.874 1.874 0 0 1 1.217-.448v-.07a1.902 1.902 0 0 1 1.916 1.888v22.887a1.903 1.903 0 0 1-1.902 1.902h-.014a1.86 1.86 0 0 1-1.217-.433l-11.64-10.786v10.506a.713.713 0 0 1-.713.713h-2.798a.714.714 0 0 1-.727-.699v-25.195a.713.713 0 0 1 .713-.713z"
    fill="#1eb980"/>
  <rect x="-585.953"
    y="498.973"
    width="11.289"
    height="26.496"
    rx="2.798"
    fill="#1eb980"
    transform="scale(-1 1)"/>
  <path d="M562.172 498.973h5.735a2.798 2.798 0 0 1 2.798 2.797v20.9a2.798 2.798 0 0 1-2.798 2.798h-5.736a2.798 2.798 0 0 1-2.798-2.798v-20.9a2.798 2.798 0 0 1 2.798-2.797zM406.66 469.525h332.005a2.567 2.567 0 0 0 0-5.134H406.66a2.567 2.567 0 1 0 0 5.134z"
    fill="#1eb980"/>
  <path d="M639.986 475.12a8.17 8.17 0 1 0-8.156-8.183v.014a8.17 8.17 0 0 0 8.156 8.17z"
    fill="#ccc"/>
  <path d="M642.412 470.881h97.696a3.923 3.923 0 0 0 0-7.846h-97.696a2.058 2.058 0 0 0-2.055 2.056v3.735a2.058 2.058 0 0 0 2.055 2.055z"
    fill="#ccc"/>
  <path d="M563.554 357.783c5.662-.158 12.71-.356 18.135-4.32a13.929 13.929 0 0 0 5.48-10.4 9.369 9.369 0 0 0-3.185-7.694c-2.835-2.395-6.975-2.96-11.437-1.647l4.622-33.782-3.393-.465-5.435 39.715 2.834-1.3c3.286-1.507 7.795-2.273 10.598.095a6.017 6.017 0 0 1 1.974 4.957 10.527 10.527 0 0 1-4.078 7.755c-4.223 3.086-9.84 3.484-16.21 3.663zm48.845-54.93h-18.447v3.425H612.4zm-58.228 0h-18.447v3.425h18.447zm90.277-47.297c14.857-1.694 26.36-15.928 27.625-30.37 1.504-17.18-8.502-33.498-22.23-43.14-14.354-10.081-32.24-14.292-49.544-15.219a136.166 136.166 0 0 0-93.076 30.679c-12.966 10.77-25.076 24.488-29.666 41.058-3.986 14.39-.743 30.693 10.83 40.772a27.36 27.36 0 0 0 20.998 6.464c8.98-.932 17.266-5.654 24.439-10.87 13.952-10.144 25.406-24.276 42.404-29.577 12.464-3.887 28.638-.465 36.255 10.806a20.515 20.515 0 0 1 3.275 8.595 2.66 2.66 0 0 1-1.794 3.16 2.585 2.585 0 0 1-3.16-1.794c-2-14.197-19.455-19.494-31.704-16.252-17.86 4.727-29.85 20.664-44.502 30.79-7.704 5.323-16.467 9.58-25.916 10.344a32.18 32.18 0 0 1-22.612-6.947c-12.518-9.885-17.305-26.886-14.537-42.193 3.205-17.726 15.136-32.918 28.227-44.68a141.197 141.197 0 0 1 96.493-35.647c18.108.416 37.003 4.154 52.603 13.725 15.132 9.284 26.827 24.816 28.356 42.87 1.345 15.89-7.18 32.512-21.816 39.473a34.164 34.164 0 0 1-10.947 3.09c-3.28.375-3.252-4.766 0-5.137z"
    fill="#3f3d56"/>
</svg>
