<svg data-name="Layer 1"
  width="853.562"
  height="645.776"
  xmlns="http://www.w3.org/2000/svg">
  <path d="M 1.190685,633.02926 H 341.48468 a -1.19069,1.19069 0 0 0 0,-2.38137 H 1.190685 a -1.190685,1.190685 0 0 0 0,2.38137 z"
    fill="#3f3d56"
    id="path2" />
  <circle cx="-161.80276"
    cy="455.64572"
    r="33"
    fill="#2f2e41"
    id="circle4"
    transform="scale(-1,1)" />
  <circle cx="-161.13351"
    cy="467.00006"
    r="24.561029"
    fill="#a0616a"
    id="circle6"
    transform="scale(-1,1)" />
  <path d="m 123.80278,502.64572 c 0,0 45,-8 74,2 l -8.5,67.5 2,11 -60,-2 4,-11 z"
    fill="#a0616a"
    id="path8" />
  <path d="m 155.07451,575.48459 a -302.54134,302.54134 0 0 0 30.99853,-1.96407 -8.49227,8.49227 0 0 0 7.56155,-8.64531 l -0.73,-31.56738 -0.085,-0.12305 c -8.69444,-12.59343 -4.45926,-21.79141 -1.20163,-26.74331 a -6.39683,6.39683 0 0 0 1.05221,-3.52231 v 0 c 0.49961,-0.69537 0.61243,0.4051 0.30187,-0.37928 a -2.50994,2.50994 0 0 0 -1.83605,-1.53769 l -4.96411,-0.99221 a -2.499,2.499 0 0 0 -2.85815,1.65136 c -1.668,4.97657 -8.16934,20.99082 -23.06617,20.98731 -12.44482,-0.003 -17.08862,-17.61133 -17.36694,-21.68066 a -2.50269,2.50269 0 0 0 -2.49267,-2.32227 h -6.20056 a -2.61678,2.61678 0 0 0 -2.06638,0.93431 -2.48006,2.48006 0 0 0 -0.24381,2.75125 c 7.07642,13.00976 -3.26513,33.5957 -3.37036,33.80175 l -0.0664,0.12989 2.91772,30.293 a -8.54056,8.54056 0 0 0 6.57446,7.47656 c 4.51225,1.06148 10.60917,1.45211 17.14189,1.45211 z"
    fill="#cccccc"
    id="path10" />
  <path d="m 212.17778,645.7756 c 6.71973,10e-4 12.87231,-0.74023 17.75952,-2.48926 5.80957,-2.0791 9.458,-5.4414 10.84375,-9.99511 a -13.20056,13.20056 0 0 0 -1.60644,-11.67285 c -8.59473,-12.87012 -38.42066,-16.49707 -42.42285,-16.92871 l -2.12012,-17.667 a -8.53092,8.53092 0 0 0 -8.30664,-7.48633 l -50.23194,-0.78417 a -8.4213,8.4213 0 0 0 -8.4956,6.97753 l -2.85449,15.7002 32.938,15.96973 -4.98022,13.94531 0.32471,0.2168 c 9.64109,6.42773 37.36375,14.21289 59.15232,14.21386 z"
    fill="#2f2e41"
    id="path12" />
  <path d="m 129.30278,599.14572 c 0,0 -45.999995,-6 -42.999995,18 3,24 37.999995,41 90.999995,0 l -6,-12 c 0,0 -30,8 -42,2 z"
    fill="#2f2e41"
    id="path14" />
  <path d="m 170.30278,608.14572 c 0,0 0,-12 10,-11 10,1 28,2 28,2 0,0 6,4 -2,6 -8,2 -32,12 -32,12 z"
    fill="#a0616a"
    id="path16" />
  <path d="m 153.30278,606.14572 c 0,0 0,-12 -10,-11 -10,1 -28,2 -28,2 0,0 -6,4 2,6 8,2 32,12 32,12 z"
    fill="#a0616a"
    id="path18" />
  <path d="m 93.381395,603.87265 14.921385,-51.72693 c 0,0 3,-18 6,-35 3,-17 14,-15 14,-15 l 2,1 v 27 l -2,25 -19.96533,54.9043 a -10.50111,10.50111 0 1 1 -14.956055,-6.17737 z"
    fill="#a0616a"
    id="path20" />
  <path d="m 194.30278,504.14572 c 0,0 11,-2 14,15 3,17 6,35 6,35 l 14.92139,51.727 a -10.49555,10.49555 0 1 1 -14.95606,6.17731 l -19.96533,-54.9043 -2,-25 V 507.3818 a -3.618,3.618 0 0 1 2,-3.23607 z"
    fill="#a0616a"
    id="path22" />
  <path d="m 185.44614,451.91161 a -73.04115,73.04115 0 0 1 -31.59919,10.4119 l 3.33084,-3.991 a -24.47745,24.47745 0 0 1 -7.5611,1.50142 -8.28066,8.28066 0 0 1 -6.74954,-3.15917 -7.70229,7.70229 0 0 1 -0.51556,-7.115 -14.58851,14.58851 0 0 1 4.58936,-5.7385 -27.32287,27.32287 0 0 1 25.43066,-4.54493 -16.32982,16.32982 0 0 1 7.59543,4.8722 -9.2358,9.2358 0 0 1 1.86255,8.56086"
    fill="#2f2e41"
    id="path24" />
  <path d="m 158.69663,426.30896 a -75.48458,75.48458 0 0 1 27.463,-17.7592 c 6.63872,-2.45942 13.86459,-3.979 20.80509,-2.58226 6.9405,1.39674 13.50412,6.19807 15.44041,13.00778 1.58332,5.56836 -0.0516,11.56379 -2.50871,16.80555 -2.45713,5.24176 -5.73758,10.10247 -7.72462,15.53986 a -35.46792,35.46792 0 0 0 35.689,47.56226 c -6.81937,0.91438 -13.10515,4.11905 -19.77076,5.82483 -6.66561,1.70578 -14.53281,1.59011 -19.48624,-3.18519 -5.24091,-5.05243 -5.34584,-13.26718 -5.09245,-20.54248 q 0.565,-16.22249 1.13,-32.445 c 0.19209,-5.51543 0.35614,-11.20763 -1.63289,-16.35551 -1.98903,-5.14788 -6.71617,-9.65569 -12.23475,-9.60884 -4.18253,0.0355 -7.88442,2.56925 -11.23865,5.068 -3.35423,2.49875 -6.90446,5.16473 -11.0706,5.53641 -4.16614,0.37168 -8.92292,-2.71145 -8.61118,-6.8825"
    fill="#2f2e41"
    id="path26" />
  <path d="m 378.0621,609 h 440 a -35.54021,35.54021 0 0 0 35.5,-35.5 V 35.5 A -35.5402,35.5402 0 0 0 818.0621,0 h -440 a -35.54028,35.54028 0 0 0 -35.5,35.5 v 538 a -35.54028,35.54028 0 0 0 35.5,35.5 z"
    fill="#e6e6e6"
    id="path28" />
  <path d="m 391.0621,585 h 414 a -16.51867,16.51867 0 0 0 16.5,-16.5 v -496 a -16.51866,16.51866 0 0 0 -16.5,-16.5 h -414 a -16.51867,16.51867 0 0 0 -16.5,16.5 v 496 a -16.51868,16.51868 0 0 0 16.5,16.5 z"
    fill="#ffffff"
    id="path30" />
  <path d="m 522.33261,232.46588 c 6.72558,-16.10132 17.17187,-29.53174 32.335,-38.4339 15.93115,-9.35291 34.11719,-17.14118 52.439,-19.95062 a -136.79876,136.79876 0 0 1 54.96485,3.07629 c 8.64013,2.238 18.165,4.83722 25.45215,10.19513 6.96631,5.12189 11.73828,13.54773 15.623,21.11706 3.72217,7.25165 6.04248,15.23713 4.02784,23.35883 -1.85645,7.48468 -7.04737,13.71808 -12.98438,18.40857 -5.30371,4.18988 -12.72119,9.73633 -19.81543,7.13971 a -5.52933,5.52933 0 0 1 -1.14551,-0.57813 c -12.25146,3.72779 -24.43213,-1.69354 -37.0083,-5.93811 -7.64306,-2.57977 -15.32812,-3.884 -23.0039,-0.66436 -7.563,3.1723 -13.71875,9.40533 -18.23047,16.12262 -4.29248,6.39038 -7.11768,13.64526 -11.82666,19.77081 a -28.0933,28.0933 0 0 1 -19.85791,11.2135 c -15.19629,1.70032 -35.36475,0.13428 -44.11914,-14.25378 -9.3287,-15.33179 -3.2247,-35.32325 3.14986,-50.58362 z m 155.1167,-23.54669 q -3.38086,0.38388 -6.76221,0.7666 a -25.00253,25.00253 0 0 1 11.65332,5.46393 -29.68784,29.68784 0 0 1 3.52295,3.51965 c -0.0308,-0.10291 -0.0488,-0.20087 -0.082,-0.30487 a -15.72531,15.72531 0 0 0 -8.33206,-9.44531 z m -75.66748,14.39325 a -3.86773,3.86773 0 0 1 -1.69971,0.72509 c -0.0723,0.0118 -0.144,0.0255 -0.21631,0.0374 q -0.62841,0.36081 -1.26074,0.715 c 0.0479,0.0662 0.0835,0.13929 0.12891,0.20722 1.03027,-0.10657 2.06152,-0.20862 3.09228,-0.31226 a -5.4239,5.4239 0 0 1 -0.0444,-1.37241 z m -27.27539,32.25336 a -4.51518,4.51518 0 0 1 0.59863,0.79108 q 0.15234,-0.21992 0.30371,-0.44031 a -2.98505,2.98505 0 0 0 -0.90234,-0.35077 z m -17.61573,19.06561 q -1.53222,0.20142 -3.064,0.40271 a -3.87136,3.87136 0 0 1 0.41553,1.06238 c 0.72363,0.0237 1.45361,0.0359 2.18408,0.0388 z m -14.79443,-8.69415 q -0.61669,-0.10582 -1.23291,-0.21173 a -4.48708,4.48708 0 0 1 -1.80225,-0.71594 c -0.002,0.0723 -0.008,0.1452 -0.0112,0.21741 -0.009,0.24633 -0.0322,0.55334 -0.063,0.90313 0.10058,0.17646 0.20263,0.35205 0.31054,0.526 q 1.39968,-0.35933 2.79885,-0.71888 z m 52.53711,-54.332 a -5.8843,5.8843 0 0 1 1.64111,-0.96545 -70.96217,70.96217 0 0 1 8.86963,-2.77381 q 0.67749,-0.63628 1.32227,-1.30645 a -71.41034,71.41034 0 0 0 -7.53614,1.9179 -87.75017,87.75017 0 0 0 -9.32617,3.58649 q 2.51661,-0.28067 5.0293,-0.45866 z m -28.30078,1.89618 q 2.21484,-1.38437 4.458,-2.71771 -2.29908,1.29556 -4.53321,2.71625 z m -30.51465,13.9267 a -106.46358,106.46358 0 0 1 13.08887,-13.40546 -6.516,6.516 0 0 1 -0.54151,-2.67139 -67.26359,67.26359 0 0 0 -12.54736,16.07687 z m 56.90869,-39.64177 c 0.62549,-0.14453 1.25147,-0.29028 1.87793,-0.43164 5.94922,-1.34289 12.00977,-2.78955 18.125,-4.017 -0.32812,0.0388 -0.65625,0.0701 -0.98389,0.11188 a -105.589,105.589 0 0 0 -19.01904,4.33676 z"
    fill="#1eb980"
    id="path32" />
  <circle cx="-598.06213"
    cy="26.5"
    r="12"
    fill="#ffffff"
    id="circle34"
    transform="scale(-1,1)" />
  <path d="m 720.10405,498.41291 c 0.004,-9e-5 0.009,0 0.0137,0 a -1.86072,1.86072 0 0 1 1.20288,0.44766 l 11.63943,10.77169 v -10.50589 a -0.7131,0.7131 0 0 1 0.71312,-0.71346 h 2.88186 a -0.71311,0.71311 0 0 1 0.71312,0.71346 v 25.18052 a -0.71311,0.71311 0 0 1 -0.71312,0.71346 h -2.86751 a -0.71369,0.71369 0 0 1 -0.71381,-0.71346 v -10.436 l -11.63875,10.71576 a -1.8484,1.8484 0 0 1 -1.20356,0.43366 -1.8887,1.8887 0 0 1 -1.916,-1.86033 v -22.8306 a -1.90209,1.90209 0 0 1 1.88868,-1.91647 z"
    fill="#1eb980"
    id="path36" />
  <path d="m 456.84105,498.48267 0.0143,1.7e-4 h 2.79783 a -0.71337,0.71337 0 0 1 0.71346,0.71337 v 10.45 l 11.6391,-10.71567 a -1.87377,1.87377 0 0 1 1.21688,-0.44766 v -0.0699 a -1.90215,1.90215 0 0 1 1.91634,1.8885 c 3.4e-4,0.009 3.4e-4,0.0187 0,0.028 v 22.85835 a -1.90261,1.90261 0 0 1 -1.90234,1.9026 l -0.014,-9e-5 a -1.86053,1.86053 0 0 1 -1.21688,-0.43366 l -11.6391,-10.78569 v 10.50584 a -0.71339,0.71339 0 0 1 -0.71346,0.71346 h -2.79783 a -0.71351,0.71351 0 0 1 -0.72747,-0.69929 V 499.1963 a -0.7133,0.7133 0 0 1 0.71312,-0.71363 z"
    fill="#1eb980"
    id="path38" />
  <rect x="-609.95288"
    y="498.9725"
    width="11.28902"
    height="26.49551"
    rx="2.7978401"
    fill="#1eb980"
    id="rect40"
    transform="scale(-1,1)" />
  <path d="m 586.1713,498.97251 h 5.7357 a -2.79786,2.79786 0 0 1 2.79783,2.79784 v 20.89983 a -2.79792,2.79792 0 0 1 -2.79783,2.79784 h -5.7357 a -2.79793,2.79793 0 0 1 -2.79784,-2.79784 v -20.89983 a -2.79787,2.79787 0 0 1 2.79784,-2.79784 z"
    fill="#1eb980"
    id="path42" />
  <path d="m 430.66056,469.52522 h 332.00525 a -2.567,2.567 0 0 0 0,-5.13392 H 430.66056 a -2.567,2.567 0 1 0 0,5.13392 z"
    fill="#1eb980"
    id="path44" />
  <path d="m 663.98597,475.12095 a -8.16969,8.16969 0 1 0 -8.15567,-8.18368 v 0.014 a -8.16968,8.16968 0 0 0 8.15567,8.16968 z"
    fill="#cccccc"
    id="path46" />
  <path d="m 666.41205,470.88111 h 97.696 a -3.92285,3.92285 0 0 0 0,-7.84569 h -97.696 a -2.05753,2.05753 0 0 0 -2.055,2.05534 v 3.735 a -2.05753,2.05753 0 0 0 2.055,2.05535 z"
    fill="#cccccc"
    id="path48" />
  <path d="m 587.55476,357.78304 c 5.66248,-0.15805 12.70974,-0.35623 18.13557,-4.31992 a -13.929,13.929 0 0 0 5.4806,-10.4001 -9.36887,9.36887 0 0 0 -3.186,-7.69407 c -2.83521,-2.39494 -6.97493,-2.95939 -11.437,-1.64653 l 4.62264,-33.78253 -3.39339,-0.46494 -5.43461,39.71553 2.83354,-1.30033 c 3.28552,-1.50687 7.79526,-2.27285 10.59786,0.0945 a -6.01721,6.01721 0 0 1 1.9739,4.95712 -10.527,10.527 0 0 1 -4.07784,7.75512 c -4.2225,3.08566 -9.83982,3.4837 -16.21141,3.66266 z"
    fill="#3f3d56"
    id="path50" />
  <rect x="-636.39978"
    y="302.8533"
    width="18.44747"
    height="3.4251699"
    fill="#3f3d56"
    id="rect52"
    transform="scale(-1,1)" />
  <rect x="-578.17194"
    y="302.8533"
    width="18.44747"
    height="3.4251699"
    fill="#3f3d56"
    id="rect54"
    transform="scale(-1,1)" />
  <path d="m 668.44937,255.55587 c 14.85532,-1.694 26.36043,-15.92741 27.6241,-30.36917 1.50335,-17.18082 -8.50226,-33.49868 -22.22919,-43.1398 -14.35519,-10.08239 -32.2404,-14.29281 -49.54512,-15.21965 a -136.16645,136.16645 0 0 0 -93.07565,30.67855 c -12.96672,10.76951 -25.07677,24.488 -29.66656,41.05819 -3.986,14.39053 -0.7424,30.69313 10.83164,40.77182 a -27.36058,27.36058 0 0 0 20.99619,6.46453 c 8.98059,-0.93249 17.26665,-5.65456 24.43923,-10.86959 13.95215,-10.14433 25.40617,-24.27635 42.40438,-29.57745 12.46369,-3.88694 28.63778,-0.46556 36.25435,10.80553 a -20.51508,20.51508 0 0 1 3.27547,8.59487 -2.66035,2.66035 0 0 1 -1.7942,3.16 -2.58484,2.58484 0 0 1 -3.16,-1.7942 c -1.99958,-14.19626 -19.45519,-19.49352 -31.70427,-16.25154 -17.85976,4.727 -29.84883,20.66421 -44.502,30.78973 -7.70407,5.32359 -16.46657,9.58032 -25.91554,10.344 a -32.18089,32.18089 0 0 1 -22.61171,-6.94638 c -12.51828,-9.88485 -17.3056,-26.8865 -14.53749,-42.19366 3.2055,-17.72591 15.13622,-32.91808 28.22675,-44.68 a -141.197,141.197 0 0 1 96.49371,-35.64633 c 18.10813,0.41592 37.00223,4.15413 52.6023,13.725 15.132,9.28371 26.82771,24.81534 28.35635,42.86926 1.34549,15.89095 -7.18031,32.512 -21.81561,39.47391 a -34.16406,34.16406 0 0 1 -10.94707,3.09009 c -3.2795,0.374 -3.25278,-4.76682 0,-5.13775 z"
    fill="#3f3d56"
    id="path56" />
</svg>
