<svg data-name="Layer 1"
  width="811.311"
  height="676.379"
  xmlns="http://www.w3.org/2000/svg">
  <path d="M1.19 663.633h340.295a1.19 1.19 0 0 0 0-2.382H1.19a1.19 1.19 0 0 0 0 2.382z"
    fill="#3f3d56"/>
  <circle cx="-161.803"
    cy="486.249"
    r="33"
    fill="#2f2e41"
    transform="scale(-1 1)"/>
  <circle cx="-161.134"
    cy="497.604"
    r="24.561"
    fill="#a0616a"
    transform="scale(-1 1)"/>
  <path d="M123.803 533.25s45-8 74 2l-8.5 67.5 2 11-60-2 4-11z"
    fill="#a0616a"/>
  <path d="M155.075 606.088a302.541 302.541 0 0 0 30.998-1.964 8.492 8.492 0 0 0 7.562-8.645l-.73-31.568-.085-.123c-8.695-12.593-4.46-21.791-1.202-26.743a6.397 6.397 0 0 0 1.052-3.522c.5-.696.613.405.302-.38a2.51 2.51 0 0 0-1.836-1.537l-4.964-.992a2.499 2.499 0 0 0-2.858 1.65c-1.668 4.977-8.17 20.992-23.066 20.988-12.445-.003-17.09-17.611-17.367-21.68a2.503 2.503 0 0 0-2.493-2.323h-6.2a2.617 2.617 0 0 0-2.067.935 2.48 2.48 0 0 0-.244 2.75c7.077 13.01-3.265 33.597-3.37 33.803l-.067.13 2.918 30.292a8.54 8.54 0 0 0 6.575 7.477c4.512 1.061 10.609 1.452 17.142 1.452z"
    fill="#ccc"/>
  <path d="M212.178 676.38c6.72 0 12.872-.741 17.76-2.49 5.809-2.08 9.457-5.442 10.843-9.995a13.2 13.2 0 0 0-1.606-11.673c-8.595-12.87-38.421-16.497-42.423-16.929l-2.12-17.667a8.53 8.53 0 0 0-8.307-7.486l-50.232-.784a8.421 8.421 0 0 0-8.496 6.977l-2.854 15.7 32.938 15.97-4.98 13.945.324.217c9.642 6.428 37.364 14.213 59.153 14.214z"
    fill="#2f2e41"/>
  <path d="M129.303 629.75s-46-6-43 18 38 41 91 0l-6-12s-30 8-42 2z"
    fill="#2f2e41"/>
  <path d="M170.303 638.75s0-12 10-11 28 2 28 2 6 4-2 6-32 12-32 12zM153.303 636.75s0-12-10-11-28 2-28 2-6 4 2 6 32 12 32 12z"
    fill="#a0616a"/>
  <path d="m93.381 634.476 14.922-51.727s3-18 6-35 14-15 14-15l2 1v27l-2 25-19.966 54.905a10.501 10.501 0 1 1-14.956-6.178zM194.303 534.75s11-2 14 15 6 35 6 35l14.921 51.726a10.496 10.496 0 1 1-14.956 6.178l-19.965-54.905-2-25v-24.764a3.618 3.618 0 0 1 2-3.236z"
    fill="#a0616a"/>
  <path d="M185.446 482.515a73.041 73.041 0 0 1-31.599 10.412l3.33-3.991a24.477 24.477 0 0 1-7.56 1.501 8.28 8.28 0 0 1-6.75-3.159 7.702 7.702 0 0 1-.515-7.115 14.589 14.589 0 0 1 4.589-5.738 27.323 27.323 0 0 1 25.43-4.545 16.33 16.33 0 0 1 7.596 4.872 9.236 9.236 0 0 1 1.863 8.56"
    fill="#2f2e41"/>
  <path d="M158.697 456.912a75.485 75.485 0 0 1 27.463-17.759c6.638-2.46 13.864-3.979 20.805-2.582 6.94 1.397 13.504 6.198 15.44 13.008 1.583 5.568-.051 11.564-2.509 16.805-2.457 5.242-5.737 10.103-7.724 15.54a35.468 35.468 0 0 0 35.689 47.562c-6.82.915-13.105 4.12-19.771 5.825-6.666 1.706-14.533 1.59-19.486-3.185-5.241-5.052-5.346-13.267-5.093-20.542l1.13-32.445c.192-5.516.356-11.208-1.633-16.356-1.989-5.148-6.716-9.656-12.234-9.609-4.183.036-7.885 2.57-11.239 5.068-3.354 2.499-6.904 5.165-11.07 5.537-4.167.371-8.923-2.712-8.612-6.883"
    fill="#2f2e41"/>
  <path style="fill:#e6e6e6;fill-opacity:1;stroke-width:.942669"
    d="M412.537 0a29.806 37.659 0 0 0-29.771 37.615v570.069a29.806 37.659 0 0 0 29.771 37.617H781.54a29.805 37.659 0 0 0 29.772-37.617V37.615A29.805 37.659 0 0 0 781.539 0Zm184.69 14.79a12 12 0 0 1 12 12 12 12 0 0 1-12 12 12 12 0 0 1-12-12 12 12 0 0 1 12-12zM423.439 59.337h347.198a13.853 17.503 0 0 1 13.838 17.484v525.565a13.853 17.503 0 0 1-13.838 17.482H423.439a13.853 17.503 0 0 1-13.837-17.482V76.822a13.853 17.503 0 0 1 13.837-17.484z"/>
  <path d="M518.333 233.07c6.725-16.102 17.171-29.532 32.335-38.434 15.93-9.353 34.117-17.142 52.439-19.951a136.799 136.799 0 0 1 54.964 3.076c8.64 2.238 18.165 4.837 25.453 10.195 6.966 5.122 11.738 13.548 15.623 21.117 3.722 7.252 6.042 15.237 4.027 23.36-1.856 7.484-7.047 13.717-12.984 18.408-5.304 4.19-12.721 9.736-19.815 7.14a5.53 5.53 0 0 1-1.146-.579c-12.251 3.728-24.432-1.693-37.008-5.938-7.643-2.58-15.328-3.884-23.004-.664-7.563 3.172-13.719 9.405-18.23 16.122-4.293 6.39-7.118 13.646-11.827 19.771a28.093 28.093 0 0 1-19.858 11.214c-15.196 1.7-35.365.134-44.12-14.254-9.328-15.332-3.224-35.323 3.15-50.584zm155.116-23.547q-3.38.384-6.762.766a25.003 25.003 0 0 1 11.653 5.464 29.688 29.688 0 0 1 3.523 3.52c-.03-.103-.048-.201-.082-.305a15.725 15.725 0 0 0-8.332-9.445zm-75.667 14.393a3.868 3.868 0 0 1-1.7.725c-.072.012-.144.026-.216.037q-.629.361-1.26.715c.047.067.083.14.128.208 1.03-.107 2.062-.209 3.092-.313a5.424 5.424 0 0 1-.044-1.372zm-27.276 32.253a4.515 4.515 0 0 1 .6.791l.303-.44a2.985 2.985 0 0 0-.903-.35zm-17.615 19.066-3.064.403a3.871 3.871 0 0 1 .415 1.062c.724.024 1.454.036 2.184.039zm-14.795-8.694-1.233-.212a4.487 4.487 0 0 1-1.802-.716c-.002.072-.008.145-.011.218-.01.246-.032.553-.063.903.1.176.203.352.31.526l2.8-.72zm52.537-54.332a5.884 5.884 0 0 1 1.642-.966 70.962 70.962 0 0 1 8.87-2.773q.677-.637 1.321-1.307a71.41 71.41 0 0 0-7.536 1.918 87.75 87.75 0 0 0-9.326 3.586q2.517-.28 5.03-.458zm-28.3 1.896q2.214-1.384 4.458-2.718-2.3 1.296-4.534 2.716zm-30.515 13.927a106.464 106.464 0 0 1 13.089-13.406 6.516 6.516 0 0 1-.542-2.671 67.264 67.264 0 0 0-12.547 16.077zm56.909-39.642c.625-.145 1.251-.29 1.878-.432 5.949-1.343 12.01-2.79 18.125-4.017-.329.039-.657.07-.984.112a105.589 105.589 0 0 0-19.02 4.337zM700.104 501.016h.014a1.86 1.86 0 0 1 1.203.448l11.64 10.772V501.73a.713.713 0 0 1 .712-.714h2.882a.713.713 0 0 1 .713.714v25.18a.713.713 0 0 1-.713.714h-2.867a.714.714 0 0 1-.714-.714v-10.436l-11.639 10.716a1.848 1.848 0 0 1-1.204.434 1.889 1.889 0 0 1-1.916-1.86v-22.831a1.902 1.902 0 0 1 1.89-1.917zM476.841 501.086h2.812a.713.713 0 0 1 .714.714v10.45l11.639-10.716a1.874 1.874 0 0 1 1.217-.448v-.07a1.902 1.902 0 0 1 1.916 1.889v22.886a1.903 1.903 0 0 1-1.902 1.903h-.014a1.86 1.86 0 0 1-1.217-.434l-11.64-10.785v10.505a.713.713 0 0 1-.713.714h-2.798a.714.714 0 0 1-.727-.7V501.8a.713.713 0 0 1 .713-.714z"
    fill="#1eb980"/>
  <rect x="-609.953"
    y="501.576"
    width="11.289"
    height="26.496"
    rx="2.798"
    fill="#1eb980"
    transform="scale(-1 1)"/>
  <path d="M586.171 501.576h5.736a2.798 2.798 0 0 1 2.798 2.798v20.9a2.798 2.798 0 0 1-2.798 2.798h-5.736a2.798 2.798 0 0 1-2.798-2.798v-20.9a2.798 2.798 0 0 1 2.798-2.798z"
    fill="#1eb980"/>
  <path d="M468.067 470.129h255.645a1.977 2.567 0 0 0 0-5.134H468.067a1.977 2.567 0 1 0 0 5.134z"
    fill="#1eb980"
    style="stroke-width:.877498"/>
  <path d="M647.986 475.724a8.17 8.17 0 1 0-8.156-8.183v.014a8.17 8.17 0 0 0 8.156 8.17z"
    fill="#ccc"/>
  <path d="M649.596 471.485h75.226a3.02 3.923 0 0 0 0-7.846h-75.226a1.584 2.058 0 0 0-1.582 2.055v3.735a1.584 2.058 0 0 0 1.582 2.056z"
    fill="#ccc"
    style="stroke-width:.877498"/>
  <path d="M583.555 358.387c5.662-.158 12.71-.357 18.135-4.32a13.929 13.929 0 0 0 5.48-10.4 9.369 9.369 0 0 0-3.185-7.695c-2.835-2.394-6.975-2.959-11.437-1.646l4.623-33.783-3.394-.465-5.434 39.716 2.833-1.3c3.286-1.507 7.795-2.273 10.598.094a6.017 6.017 0 0 1 1.974 4.957 10.527 10.527 0 0 1-4.078 7.755c-4.222 3.086-9.84 3.484-16.211 3.663zM632.4 303.457h-18.447v3.425H632.4zM574.172 303.457h-18.447v3.425h18.447zM664.45 256.16c14.855-1.695 26.36-15.928 27.623-30.37 1.504-17.18-8.502-33.498-22.229-43.14-14.355-10.082-32.24-14.292-49.545-15.22a136.166 136.166 0 0 0-93.075 30.68c-12.967 10.769-25.077 24.487-29.667 41.058-3.986 14.39-.742 30.693 10.832 40.771a27.36 27.36 0 0 0 20.996 6.465c8.98-.933 17.266-5.655 24.439-10.87 13.952-10.144 25.406-24.276 42.404-29.577 12.464-3.887 28.638-.466 36.255 10.805a20.515 20.515 0 0 1 3.275 8.595 2.66 2.66 0 0 1-1.794 3.16 2.585 2.585 0 0 1-3.16-1.794c-2-14.196-19.455-19.493-31.704-16.252-17.86 4.727-29.85 20.665-44.502 30.79-7.704 5.324-16.467 9.58-25.916 10.344a32.18 32.18 0 0 1-22.612-6.946c-12.518-9.885-17.305-26.887-14.537-42.194 3.206-17.726 15.136-32.918 28.227-44.68a141.197 141.197 0 0 1 96.493-35.646c18.109.416 37.003 4.154 52.603 13.725 15.132 9.284 26.827 24.815 28.356 42.87 1.346 15.89-7.18 32.511-21.815 39.473a34.164 34.164 0 0 1-10.948 3.09c-3.28.374-3.252-4.767 0-5.138z"
    fill="#3f3d56"/>
</svg>
