<svg xmlns="http://www.w3.org/2000/svg"
  width="256"
  height="256">
  <g transform="matrix(.97921 0 0 .97406 0 61.339)">
    <path fill="#3f3d56"
      d="M.454 192.276h129.81a.454.352 0 0 0 0-.704H.453a.454.352 0 0 0 0 .704z"
      style="stroke-width:.335763"/>
    <circle cx="-61.241"
      cy="95.889"
      r="18.043"
      fill="#2f2e41"
      style="stroke-width:.546755"
      transform="scale(-1 1)"/>
    <circle cx="-60.875"
      cy="102.098"
      r="13.429"
      fill="#a0616a"
      style="stroke-width:.546755"
      transform="scale(-1 1)"/>
    <path fill="#a0616a"
      d="M40.464 121.587s24.604-4.374 40.46 1.094l-4.647 36.906 1.093 6.014-32.805-1.094 2.187-6.014z"
      style="stroke-width:.546755"/>
    <path fill="#ccc"
      d="M57.562 161.412a165.416 165.416 0 0 0 16.949-1.074 4.643 4.643 0 0 0 4.134-4.727l-.399-17.26-.046-.067c-4.754-6.885-2.439-11.914-.658-14.622a3.498 3.498 0 0 0 .576-1.926c.273-.38.335.222.165-.207a1.372 1.372 0 0 0-1.004-.84l-2.714-.543a1.366 1.366 0 0 0-1.563.902c-.912 2.721-4.467 11.478-12.611 11.475-6.805-.002-9.344-9.629-9.496-11.853a1.369 1.369 0 0 0-1.363-1.27h-3.39a1.43 1.43 0 0 0-1.13.51 1.356 1.356 0 0 0-.133 1.504c3.87 7.114-1.785 18.37-1.843 18.482l-.036.071 1.595 16.563a4.67 4.67 0 0 0 3.595 4.088c2.467.58 5.8.794 9.372.794z"
      style="stroke-width:.546755"/>
    <path fill="#2f2e41"
      d="M88.784 199.844c3.674 0 7.038-.405 9.71-1.361 3.176-1.137 5.17-2.976 5.929-5.465a7.217 7.217 0 0 0-.879-6.382c-4.699-7.037-21.006-9.02-23.195-9.256l-1.159-9.66a4.664 4.664 0 0 0-4.542-4.093l-27.464-.428a4.604 4.604 0 0 0-4.645 3.814l-1.56 8.584 18.008 8.732-2.723 7.624.178.12c5.271 3.514 20.428 7.77 32.342 7.77z"
      style="stroke-width:.546755"/>
    <path fill="#2f2e41"
      d="M43.471 174.35s-25.15-3.281-23.51 9.84c1.64 13.123 20.777 22.418 49.755 0l-3.28-6.56s-16.404 4.374-22.965 1.093z"
      style="stroke-width:.546755"/>
    <path fill="#a0616a"
      d="M65.888 179.27s0-6.561 5.468-6.014c5.467.546 15.31 1.093 15.31 1.093s3.28 2.187-1.094 3.28c-4.374 1.094-17.497 6.562-17.497 6.562zm-9.294-1.094s0-6.56-5.468-6.014c-5.468.547-15.31 1.094-15.31 1.094s-3.28 2.187 1.094 3.28c4.374 1.094 17.497 6.561 17.497 6.561z"
      style="stroke-width:.546755"/>
    <path fill="#a0616a"
      d="m23.83 176.933 8.16-28.282s1.64-9.842 3.28-19.136c1.64-9.295 7.655-8.202 7.655-8.202l1.093.547v14.762l-1.093 13.67-10.917 30.019a5.741 5.741 0 1 1-8.177-3.378zm55.18-54.526s6.015-1.093 7.655 8.202c1.64 9.294 3.28 19.136 3.28 19.136l8.159 28.282a5.739 5.739 0 1 1-8.178 3.377l-10.916-30.02-1.093-13.668v-13.54a1.978 1.978 0 0 1 1.093-1.77z"
      style="stroke-width:.546755"/>
    <path fill="#2f2e41"
      d="M74.168 93.848A39.936 39.936 0 0 1 56.89 99.54l1.82-2.182a13.383 13.383 0 0 1-4.133.821 4.527 4.527 0 0 1-3.69-1.727 4.211 4.211 0 0 1-.282-3.89 7.977 7.977 0 0 1 2.51-3.138 14.939 14.939 0 0 1 13.903-2.485 8.929 8.929 0 0 1 4.153 2.664 5.05 5.05 0 0 1 1.019 4.68"
      style="stroke-width:.546755"/>
    <path fill="#2f2e41"
      d="M59.543 79.849a41.272 41.272 0 0 1 15.015-9.71c3.63-1.345 7.58-2.175 11.375-1.412 3.795.764 7.384 3.39 8.442 7.113.866 3.044-.027 6.322-1.371 9.188-1.344 2.866-3.137 5.524-4.224 8.496a19.392 19.392 0 0 0 19.514 26.005c-3.73.5-7.166 2.253-10.81 3.185-3.645.933-7.946.87-10.654-1.741-2.866-2.763-2.923-7.254-2.785-11.232l.618-17.74c.105-3.015.194-6.127-.893-8.942-1.088-2.815-3.672-5.28-6.689-5.254-2.287.02-4.311 1.405-6.145 2.771-1.834 1.367-3.775 2.824-6.053 3.028-2.278.202-4.878-1.483-4.708-3.764"
      style="stroke-width:.546755"/>
  </g>
  <g transform="translate(-26.483 34) scale(1.10345)">
    <path d="M148.058 0A8.068 10.154 0 0 0 140 10.143v153.714A8.068 10.154 0 0 0 148.058 174h99.883A8.068 10.154 0 0 0 256 163.857V10.143A8.068 10.154 0 0 0 247.941 0Zm49.993 3.988a3.248 3.236 0 0 1 3.248 3.236 3.248 3.236 0 0 1-3.248 3.235 3.248 3.236 0 0 1-3.248-3.235 3.248 3.236 0 0 1 3.248-3.236zM151.009 16h93.981a3.75 4.72 0 0 1 3.746 4.714v141.714a3.75 4.72 0 0 1-3.746 4.714h-93.98a3.75 4.72 0 0 1-3.746-4.714V20.714A3.75 4.72 0 0 1 151.01 16Z"
      style="fill:#e6e6e6;fill-opacity:1;stroke-width:.254674"/>
    <path fill="#1eb980"
      d="M176.696 62.845c1.82-4.341 4.648-7.963 8.752-10.363 4.312-2.522 9.235-4.622 14.194-5.38a37.03 36.887 0 0 1 14.878.83c2.339.603 4.917 1.304 6.89 2.749 1.886 1.38 3.177 3.653 4.229 5.694 1.007 1.955 1.635 4.108 1.09 6.299-.502 2.018-1.908 3.698-3.515 4.963-1.435 1.13-3.443 2.625-5.363 1.925a1.497 1.491 0 0 1-.31-.156c-3.317 1.006-6.614-.456-10.018-1.6-2.069-.697-4.149-1.048-6.227-.18-2.047.855-3.713 2.536-4.934 4.347-1.162 1.723-1.927 3.68-3.202 5.331a7.604 7.575 0 0 1-5.375 3.024c-4.113.459-9.572.036-11.942-3.843-2.525-4.134-.873-9.525.852-13.64zm41.987-6.349-1.83.207a6.768 6.742 0 0 1 3.154 1.473 8.036 8.005 0 0 1 .953.95c-.008-.029-.013-.055-.022-.083a4.256 4.24 0 0 0-2.255-2.547zM198.2 60.377a1.047 1.043 0 0 1-.46.196c-.02.002-.039.007-.058.01q-.17.097-.342.192c.013.018.023.038.035.056l.837-.084a1.468 1.463 0 0 1-.012-.37zm-7.383 8.697a1.222 1.217 0 0 1 .162.213l.082-.119a.808.805 0 0 0-.244-.094zm-4.768 5.14-.83.11a1.048 1.044 0 0 1 .113.286c.196.006.393.01.591.01zm-4.005-2.343-.334-.058a1.215 1.21 0 0 1-.487-.193l-.003.06c-.002.065-.01.148-.017.243.027.047.055.095.084.141l.757-.194zm14.221-14.65a1.593 1.587 0 0 1 .444-.261 19.208 19.134 0 0 1 2.401-.748q.184-.172.358-.352a19.33 19.255 0 0 0-2.04.517 23.752 23.661 0 0 0-2.524.967q.681-.076 1.361-.124zm-7.66.51q.599-.373 1.206-.732-.622.35-1.227.732zm-8.26 3.756a28.818 28.707 0 0 1 3.543-3.615 1.764 1.757 0 0 1-.147-.72 18.207 18.137 0 0 0-3.396 4.335zm15.404-10.69.508-.116c1.61-.362 3.251-.752 4.907-1.083l-.267.03a28.581 28.471 0 0 0-5.148 1.17zm30.148 84.298h.004a.503.502 0 0 1 .326.12l3.15 2.905v-2.833a.193.192 0 0 1 .193-.192h.78a.193.192 0 0 1 .193.192v6.79a.193.192 0 0 1-.193.192h-.776a.193.193 0 0 1-.193-.192v-2.814l-3.15 2.89a.5.498 0 0 1-.327.116.511.51 0 0 1-.518-.501v-6.156a.515.513 0 0 1 .511-.517zm-60.434.019h.762a.193.192 0 0 1 .193.192v2.818l3.15-2.89a.507.505 0 0 1 .33-.12v-.02a.515.513 0 0 1 .518.51v6.171a.515.513 0 0 1-.514.513h-.004a.503.502 0 0 1-.33-.117l-3.15-2.908v2.833a.193.192 0 0 1-.194.192h-.757a.193.193 0 0 1-.197-.188v-6.794a.193.192 0 0 1 .193-.192z"
      style="stroke-width:.270162"/>
    <rect width="3.056"
      height="7.144"
      x="-201.496"
      y="135.246"
      fill="#1eb980"
      rx=".757"
      style="stroke-width:.270162"
      transform="scale(-1 1)"/>
    <path fill="#1eb980"
      d="M195.058 135.246h1.553a.757.754 0 0 1 .757.754v5.636a.757.754 0 0 1-.757.754h-1.553a.757.754 0 0 1-.757-.754V136a.757.754 0 0 1 .757-.754z"
      style="stroke-width:.270162"/>
    <path fill="#1eb980"
      d="M163.09 126.766h69.198a.535.692 0 0 0 0-1.384H163.09a.535.692 0 1 0 0 1.384z"
      style="stroke-width:.237066"/>
    <path fill="#ccc"
      d="M211.79 128.275a2.211 2.203 0 1 0-2.207-2.206v.004a2.211 2.203 0 0 0 2.207 2.202z"
      style="stroke-width:.270162"/>
    <path fill="#ccc"
      d="M212.226 127.132h20.363a.817 1.058 0 0 0 0-2.116h-20.363a.429.555 0 0 0-.428.554v1.008a.429.555 0 0 0 .428.554z"
      style="stroke-width:.237066"/>
    <path fill="#3f3d56"
      d="M194.35 96.636c1.533-.042 3.44-.096 4.909-1.165a3.77 3.756 0 0 0 1.483-2.804 2.536 2.526 0 0 0-.862-2.075c-.767-.645-1.888-.798-3.096-.444l1.252-9.11-.919-.124-1.47 10.709.766-.35c.89-.407 2.11-.614 2.869.024a1.629 1.622 0 0 1 .534 1.337 2.85 2.839 0 0 1-1.104 2.091c-1.143.832-2.663.94-4.388.988zm13.222-14.811h-4.994v.923h4.994zm-15.762 0h-4.993v.923h4.993zm24.437-12.754c4.021-.457 7.135-4.294 7.477-8.189.407-4.632-2.301-9.032-6.017-11.632-3.886-2.718-8.727-3.854-13.41-4.104a36.858 36.716 0 0 0-25.195 8.273c-3.51 2.903-6.788 6.602-8.03 11.07-1.079 3.88-.2 8.277 2.932 10.994a7.406 7.377 0 0 0 5.683 1.743c2.431-.251 4.674-1.524 6.615-2.93 3.777-2.736 6.877-6.546 11.478-7.976 3.374-1.048 7.752-.125 9.814 2.914a5.553 5.532 0 0 1 .887 2.317.72.717 0 0 1-.486.852.7.697 0 0 1-.855-.483c-.542-3.828-5.267-5.256-8.582-4.383-4.835 1.275-8.08 5.573-12.046 8.303-2.085 1.435-4.457 2.583-7.015 2.789a8.71 8.677 0 0 1-6.12-1.873c-3.39-2.665-4.685-7.25-3.936-11.377.868-4.78 4.097-8.876 7.64-12.048a38.22 38.073 0 0 1 26.12-9.612c4.902.113 10.016 1.12 14.239 3.701 4.096 2.504 7.261 6.691 7.675 11.56.364 4.284-1.943 8.766-5.905 10.643a9.248 9.212 0 0 1-2.963.834c-.888.1-.88-1.286 0-1.386z"
      style="stroke-width:.270162"/>
  </g>
</svg>
