<svg data-name="Layer 1"
  width="839.086"
  height="761.032"
  xmlns="http://www.w3.org/2000/svg">
  <path fill="#3f3d56"
    style="stroke-width:.945944"
    d="M0 758.442h839.086v2H0z"/>
  <path d="M414.331 206.2h-3.999V96.657a63.402 63.402 0 0 0-63.402-63.402H114.844a63.402 63.402 0 0 0-63.402 63.401V697.63a63.402 63.402 0 0 0 63.402 63.402H346.93a63.402 63.402 0 0 0 63.402-63.402V284.177h3.999z"
    fill="#3f3d56"/>
  <path d="M396.84 97.098v600.09a47.35 47.35 0 0 1-47.35 47.35H116.28a47.342 47.342 0 0 1-47.34-47.35V97.098a47.342 47.342 0 0 1 47.34-47.35h28.3a22.486 22.486 0 0 0 20.83 30.99h132.96a22.48 22.48 0 0 0 20.82-30.99h30.3a47.35 47.35 0 0 1 47.35 47.35z"
    fill="#fff"/>
  <circle cx="174.351"
    cy="148.938"
    r="62"
    fill="#ff6584"/>
  <ellipse cx="-411.378"
    cy="332.219"
    rx="83.937"
    ry="41.137"
    transform="rotate(-84.369)"
    fill="#3f3d56"/>
  <path d="M280.55 579.092c-6.696-99.992 19.2-196.412 19.462-197.374l3.136.855c-.26.957-26.013 96.871-19.354 196.303z"
    fill="#ecc94b"
    style="fill:#7986cb;fill-opacity:1"/>
  <path fill="#ecc94b"
    d="m289.093 443.734 38.973-16.151 1.244 3.003-38.972 16.151z"
    style="fill:#7986cb;fill-opacity:1"/>
  <path transform="rotate(-56.21)"
    fill="#ecc94b"
    style="stroke-width:1;fill:#7986cb;fill-opacity:1"
    d="M-220.308 449.095h3.251v42.188h-3.251z"/>
  <ellipse cx="-281.929"
    cy="233.378"
    rx="164.171"
    ry="80.46"
    transform="rotate(-84.369)"
    fill="#e6e6e6"/>
  <path d="M187.165 571.518c-13.08-195.315 37.5-383.648 38.013-385.527l3.136.855c-.511 1.874-50.948 189.7-37.905 384.456z"
    fill="#3f3d56"/>
  <path fill="#3f3d56"
    d="m202.917 308.312 76.227-31.59 1.245 3.002-76.227 31.591zm-74.793-24.011 1.808-2.701 68.577 45.888-1.808 2.702z"/>
  <ellipse cx="-183.118"
    cy="423.941"
    rx="224.655"
    ry="110.103"
    transform="rotate(-84.369)"
    fill="#ecc94b"
    style="fill:#7986cb;fill-opacity:1"/>
  <path d="M380.683 590.598C362.79 323.423 431.98 65.803 432.681 63.232l3.136.855c-.7 2.566-69.746 259.68-51.89 526.295z"
    fill="#3f3d56"/>
  <path fill="#3f3d56"
    d="m401.87 231.015 104.31-43.23 1.245 3.004-104.31 43.229zm-102.245-33.908 1.808-2.702 93.842 62.793-1.808 2.702z"/>
  <path d="m68.94 587.236-2 112.503c0 26.619 23.19 48.199 49.34 48.199h233.21c26.15 0 49.35-21.58 49.35-48.2l-2-111.515c-117.57-45.572-226.288-42.714-327.9-.987Z"
    fill="#ecc94b"
    style="fill:#7986cb;fill-opacity:1"/>
  <path d="m566.456 196.071 12.414-9.928c-9.644-1.064-13.606 4.195-15.228 8.358-7.534-3.128-15.735.972-15.735.972l24.837 9.016a18.795 18.795 0 0 0-6.288-8.418zm-303.403-87.649 12.414-9.929c-9.644-1.064-13.606 4.196-15.228 8.358-7.534-3.128-15.735.972-15.735.972l24.837 9.017a18.795 18.795 0 0 0-6.288-8.418zm494.884-39.106 12.414-9.928c-9.644-1.064-13.606 4.195-15.228 8.358-7.534-3.128-15.735.972-15.735.972l24.837 9.016a18.795 18.795 0 0 0-6.288-8.418z"
    fill="#3f3d56"/>
  <path fill="#ffb7b7"
    d="M760.334 749.926h-10.22L745.25 710.5h15.086z"
    style="fill:#c9978f;fill-opacity:1;stroke-width:1.51435"/>
  <path d="M762.942 759.835h-32.959v-.418a12.83 12.83 0 0 1 12.827-12.828h20.133z"
    fill="#2f2e41"
    style="stroke-width:1.51435"/>
  <path fill="#ffb7b7"
    d="M716.418 749.926h-10.22l-4.863-39.426h15.086z"
    style="fill:#c9978f;fill-opacity:1;stroke-width:1.51435"/>
  <path d="M719.026 759.835h-32.959v-.418a12.83 12.83 0 0 1 12.827-12.828h20.133zm-25.876-268.57-13.85 22.024 23.248 222.242 24.296 1.47 5.11-191.946 8.52 102.6-3.367 89.346 25.014 1.213 14.863-129.627 11.191-102.523-21.958-20.444z"
    fill="#2f2e41"
    style="stroke-width:1.51435"/>
  <path d="m757.888 322.828-37.858 1.514-35.082 173.064s57.021 28.296 80.124 2.576l13.887-10.173z"
    fill="#ecc94b"
    style="stroke-width:1.51435;fill:#7986cb;fill-opacity:1"/>
  <path d="m757.888 322.828 33.316 19.415-12.309 81.289 10.793 82.882-35.054-5.712s-7.177-77.172-2.518-101.401c4.658-24.23 5.772-76.475 5.772-76.475zm-37.858 1.514-39.866 20.46 3.037 90.025-20.574 68.207s41.023 13.129 48.077-7.443c7.054-20.573 9.326-171.249 9.326-171.249z"
    fill="#3f3d56"
    style="stroke-width:1.51435"/>
  <path d="M773.866 526.925a10.117 10.117 0 0 0 3.74-15.057l12.03-19.742-10.214-10.237-16.597 28.118a10.172 10.172 0 0 0 11.043 16.918z"
    fill="#ffb7b7"
    style="fill:#c9978f;fill-opacity:1;stroke-width:1.51435"/>
  <path d="m773.913 353.316 15.884-12.587s15.02 12.294 14.648 24.075c-.37 11.782 4.127 74.548 4.127 74.548l-24.785 74.603-18.459-14.768 21.622-58.242-17.038-49.696z"
    fill="#3f3d56"
    style="stroke-width:1.51435"/>
  <path d="M671.23 530.44a10.117 10.117 0 0 1-1.583-15.432l-9.131-21.24 11.554-8.698 12.474 30.177a10.172 10.172 0 0 1-13.314 15.193z"
    fill="#ffb7b7"
    style="fill:#c9978f;fill-opacity:1;stroke-width:1.51435"/>
  <path d="m695.629 358.556-13.953-14.698s-16.6 10.055-17.892 21.771c-1.292 11.717-14.583 73.224-14.583 73.224l14.035 77.35 20.352-12.022-13.205-60.705 23.866-46.802z"
    fill="#3f3d56"
    style="stroke-width:1.51435"/>
  <circle cx="740.166"
    cy="285.657"
    r="25.859"
    fill="#ffb7b7"
    style="fill:#c9978f;fill-opacity:1;stroke-width:1.51435"/>
  <path d="M733.913 262.696c-2.61-.46-5.194.727-7.615 1.812-2.422 1.084-5.124 2.11-7.659 1.334a7.85 7.85 0 0 1-4.812-5.335 23.192 23.192 0 0 1-.651-7.415l2.753 1.59-1.881-3.16 26.834-2.967c8.119-.896 17.223-1.521 23.538 3.66a23.465 23.465 0 0 1 6.769 10.857c5.356 16.399 11.438 40.294-16.055 45.168-3.833-1.06 2.417-15.167 2.353-19.141-.064-3.974-2.252-8.445-6.18-9.056l-2.877 4.001c1.841-2.56-4.695-10.876-6.321-12.5a25.859 25.859 0 0 1-3.934-4.17c-1.298-1.99-1.313-4.157-4.262-4.678z"
    fill="#2f2e41"
    style="stroke-width:1.51435"/>
</svg>
