<svg data-name="Layer 1"
  width="320"
  height="240"
  xmlns="http://www.w3.org/2000/svg">
  <path d="m267.605 239.065.006-.28a32.331 32.331 0 0 1 12.09-24.348 31.37 31.37 0 0 1 6.739-4.06l.23-.103.039.248c.466 2.963 1.205 5.987 1.549 7.33l2.306-9 .256-.073a6.132 6.132 0 0 1 6.545 2.09 6.237 6.237 0 0 1 .648 6.96c-.538 1-1.066 2.046-1.578 3.056-1.756 3.473-3.571 7.064-6.217 9.854a19.543 19.543 0 0 1-15.763 5.88z"
    fill="#f2f2f2"
    style="stroke-width:.401488"/>
  <path fill="#ffb6b6"
    d="M238.85 234.903h-4.013l-1.91-15.48h5.924z"/>
  <path d="M238.992 239.09H226.65v-.157a4.804 4.804 0 0 1 4.804-4.803l2.254-1.71 4.206 1.71h1.078z"
    fill="#2f2e41"
    style="stroke-width:.401488"/>
  <path fill="#ffb6b6"
    d="m280.392 223.597-3.17 2.46-11-11.058 4.68-3.632z"/>
  <path d="m283.07 226.817-9.749 7.567-.096-.124a4.804 4.804 0 0 1 .85-6.74l.732-2.733 4.372-1.228.85-.66zM263.032 148.7s-.273 4.191-.619 10.183c-.057.982.278 2.05.218 3.119-.04.709-.472 1.398-.512 2.138-.043.78.554 1.47.512 2.278-.042.788-.723 1.693-.764 2.5-.443 8.686-2.046 19.084-.44 21.99.79 1.433 12.847 21.28 12.847 21.28s-5.62 8.43-7.227 5.62c-2.12-3.712-18.468-21.078-18.468-24.394 0-3.312-3.782-28.136-3.782-28.136l-2.637 14.69-1.21 2.911.38 1.709-.78 2.306-.043 2.282-.76 4.238s2.288 33.018.999 33.938c-1.293.923-7.552 2.581-8.29.923-.736-1.658-3.55-34.46-3.55-34.46s-.77-15.031-1.606-29.003c-.048-.811-.618-1.79-.662-2.59-.053-.927.309-2.131.26-3.03-.052-1.033-.51-1.76-.553-2.747-.342-7.632-.394-13.647.216-14.562 1.843-2.762 3.501-4.97 3.501-4.97s26.338-6.448 32.97 1.838z"
    fill="#2f2e41"
    style="stroke-width:.401488"/>
  <path d="m239.345 69.66 6.35-.356 4.786 2.613 13.308 75.365s-13.604 6.288-22.035 3.88c-8.432-2.41-17.31-2.274-17.31-2.274l6.47-72.002 5.219-4.818z"
    fill="#e6e6e6"
    style="stroke-width:.401488"/>
  <path d="m249.94 71.257 9.829 4.014a6.69 6.69 0 0 1 6.256 5.488l-.652 19.413-3.545 9.235 2.528 21.038-1.324 2.65 1.144 2.704c-1.679 2.726-1.337 6.297-.34 10.143h-1.205l-2.409-.401s-5.303 1.84-6.39-4.772c-2.844-17.31-4.45-9.682-4.45-9.682l-1.4-53.708zM236.534 71.265l-9.182 9.627a6.69 6.69 0 0 0-6.257 5.488l3.796 29.852-1.781 11.455.978 2.597-.709 2.936 1.11 2.685-.802 3.613 1.204 5.22 6.022-1.606-.046-4.281 1.606-58.216z"
    fill="#3f3d56"
    style="stroke-width:.401488"/>
  <path d="m205.912 120.751-12.509 9.077a2.731 2.731 0 1 0 2.579 3.961l17.009-9.08z"
    fill="#ffb6b6"
    style="stroke-width:.401488"/>
  <path d="M223.285 82.507c-2.377 1.097-8.25 29.169-9.974 29.764-1.723.595-1.065.506-1.307 1.003-.242.496-.3 2.721-1.955 2.982-1.654.262-10.397 8.232-10.397 8.232l2.216 7.387s16.823-9.611 21.462-14.934c4.638-5.322 7.136-32.692 7.136-32.692l.474-2.731s-5.278-.107-7.655.989z"
    fill="#3f3d56"
    style="stroke-width:.401488"/>
  <path d="m261.01 117.045-11.147 10.704a2.731 2.731 0 1 0 3.096 3.57l15.605-11.323Z"
    fill="#ffb6b6"
    style="stroke-width:.401488"/>
  <path d="M262.63 84.916c-2.204 1.412 6.174 21.89 4.548 22.715-1.626.825-.986.647-1.158 1.172-.171.525.076 2.737-1.528 3.223-1.603.485-9.171 9.577-9.171 9.577l3.207 7.014s15.348-11.824 19.214-17.732c3.866-5.907 1.35-7.902 1.35-7.902-4.796-10.187-9.282-26.8-16.06-25.695 0 0 1.804 6.216-.401 7.628z"
    fill="#3f3d56"
    style="stroke-width:.401488"/>
  <circle cx="240.707"
    cy="57.307"
    r="10.762"
    fill="#ffb6b6"
    style="stroke-width:.401488"/>
  <path d="M251.605 64.242s-2.37.65-3.75 1.012c.072-1.027.516-1.987.742-2.992.226-1.004.177-2.185-.57-2.894-.746-.709-2.3-.433-2.42.588l-1.898-4.058c-1.808 3.72-5.503.55-9.533 1.49-2.055.485-4.632.277-5.718-1.535a6.71 6.71 0 0 0 1.519-1.821 6.13 6.13 0 0 1-1.93.244 4.047 4.047 0 0 1 1.789-3.266c.58-.379-.855-1.727-.35-2.201 1.038-.969 1.734-.311 2.347-1.588a4.716 4.716 0 0 1 4.26-2.605c1.762.041 4.918.024 5.601 1.647 2.178-1.426 5.21-1.023 7.339.473 1.77 1.238 3.783 4.98 4.227 7.094.445 2.113-.535 8.57-1.655 10.412z"
    fill="#2f2e41"
    style="stroke-width:.401488"/>
  <path d="M118.296 40.552H49.381a4.902 4.902 0 0 1-4.948-4.49 4.82 4.82 0 0 1 4.807-5.146h69.056a4.818 4.818 0 0 1 0 9.636z"
    fill="#1eb980"
    style="stroke-width:.401488"/>
  <path d="M157.938 48.38H44.623a.401.401 0 0 1 0-.802h113.315a.401.401 0 0 1 0 .803z"
    fill="#e6e6e6"
    style="stroke-width:.401488"/>
  <path d="M153.226 40.752H49.24a5.019 5.019 0 0 1 0-10.037h103.986a5.019 5.019 0 0 1 0 10.037zM49.24 31.518a4.216 4.216 0 0 0 0 8.431h103.986a4.216 4.216 0 0 0 0-8.43z"
    fill="#3f3d56"
    style="stroke-width:.401488"/>
  <path d="M87.382 78.291h-38a4.902 4.902 0 0 1-4.949-4.489 4.82 4.82 0 0 1 4.807-5.146h38.142a4.818 4.818 0 0 1 0 9.635z"
    fill="#1eb980"
    style="stroke-width:.401488"/>
  <path d="M157.938 86.12H44.623a.401.401 0 0 1 0-.803h113.315a.401.401 0 0 1 0 .803z"
    fill="#e6e6e6"
    style="stroke-width:.401488"/>
  <path d="M153.226 78.492H49.24a5.019 5.019 0 0 1 0-10.037h103.986a5.019 5.019 0 0 1 0 10.037zM49.24 69.258a4.216 4.216 0 0 0 0 8.431h103.986a4.216 4.216 0 0 0 0-8.431z"
    fill="#3f3d56"
    style="stroke-width:.401488"/>
  <path d="M138.37 116.031H49.381a4.902 4.902 0 0 1-4.948-4.489 4.82 4.82 0 0 1 4.807-5.146h89.13a4.818 4.818 0 0 1 0 9.635z"
    fill="#1eb980"
    style="stroke-width:.401488"/>
  <path d="M157.938 123.86H44.623a.401.401 0 0 1 0-.803h113.315a.401.401 0 0 1 0 .803z"
    fill="#e6e6e6"
    style="stroke-width:.401488"/>
  <path d="M153.226 116.232H49.24a5.019 5.019 0 0 1 0-10.037h103.986a5.019 5.019 0 0 1 0 10.037zM49.24 106.998a4.216 4.216 0 0 0 0 8.431h103.986a4.216 4.216 0 0 0 0-8.431z"
    fill="#3f3d56"
    style="stroke-width:.401488"/>
  <path fill="#ccc"
    d="M110.955 4.723h58.078v.803h-57.276v30.129h-.802z"/>
  <circle cx="171.515"
    cy="4.796"
    r="4.796"
    fill="#ccc"
    style="stroke-width:.401488"/>
  <path fill="#ccc"
    d="M84.686 55.712H26.608v.803h57.275v16.88h.803z"/>
  <circle cx="24.126"
    cy="55.785"
    r="4.796"
    fill="#ccc"
    style="stroke-width:.401488"/>
  <path fill="#ccc"
    d="M137.453 134.596h49.245v-.803h-48.442v-21.296h-.803z"/>
  <circle cx="189.18"
    cy="134.523"
    r="4.796"
    fill="#ccc"
    style="stroke-width:.401488"/>
  <path d="M300.193 239.877 191.088 240a.478.478 0 1 1 0-.956l109.105-.123a.478.478 0 0 1 0 .956z"
    fill="#cacaca"
    style="stroke-width:.401488"/>
  <path d="M256.24 71.267a1.79 1.79 0 0 0-2.427-.576c.59-.82.146-2.221-.78-2.788-1.048-.642-2.371-.535-3.594-.408l-10.02 1.047c-1.155.12-2.342.25-3.37.79-1.03.54-1.875 1.594-1.816 2.755a5.765 5.765 0 0 0-2.458-.334c-.823.13-1.635.732-1.723 1.561-.141 1.33 1.44 2.1 2.727 2.464l7.17 2.032-.736.157a30.544 30.544 0 0 0 13.833-2.001c1.007-.397 2.027-.873 2.732-1.694.705-.821 1.013-2.074.461-3.005z"
    fill="#e6e6e6"
    style="stroke-width:.401488"/>
</svg>
