<svg viewBox="0 0 320 240"
  xmlns="http://www.w3.org/2000/svg">
  <path d="M289.76 237.425h-67.85v-2.082a6.816 6.816 0 0 1 6.816-6.816h54.218a6.816 6.816 0 0 1 6.817 6.816v2.082z"
    fill="#e6e6e6"
    style="stroke-width:.426024"/>
  <path d="m254.247 228.942 2.063-.83c-21.59-53.59-19.51-121.197-1.259-179.192a36.214 36.214 0 0 0-10.55-38.314c-10.593-9.453-25.197-11.756-38.115-6.01-12.751 5.671-14.509 15.551-14.509 25.383h2.225c0-10.495 2.243-18.482 13.188-23.351 12.107-5.385 25.798-3.225 35.73 5.638a34.013 34.013 0 0 1 9.909 35.986c-18.46 58.664-20.419 126.736 1.318 180.69z"
    fill="#e6e6e6"
    style="stroke-width:.426024"/>
  <circle cx="193.546"
    cy="55.006"
    r="7.786"
    fill="#e6e6e6"
    style="stroke-width:.426024"/>
  <path d="M181.554 68.58V53.827h2.294V68.58a3.059 3.059 0 1 1-2.294 0z"
    fill="#e6e6e6"
    style="stroke-width:.426024"/>
  <path d="M170.465 42.492a12.806 12.806 0 0 1 12.792-12.791h21.134a12.792 12.792 0 1 1 0 25.583h-21.134a12.806 12.806 0 0 1-12.792-12.792Z"
    fill="#1eb980"
    style="stroke-width:.426024"/>
  <path d="M140.688 121.706c2.122-27.147 12.971-40.082 6.024-48.193-6.654-7.77-25.398-6.165-37.435 1.29-32.469 20.11-44.364 100.258-2.582 139.417 39.703 37.21 114.948 25.292 131.67-5.164 3.902-7.106 7.002-19.564 1.291-27.109-14.177-18.73-65.723 15.196-88.64-6.024-13.582-12.575-11.492-39.319-10.328-54.217z"
    fill="#3f3d56"
    style="stroke-width:.426024"/>
  <path d="M165.507 108.219a3.332 3.332 0 0 0-1.671 4.337 3.197 3.197 0 0 0 .254.463l-6.969 9.305 3.478 5.198 8.168-13.78a3.323 3.323 0 0 0 1.011-3.928 3.18 3.18 0 0 0-4.191-1.631l-.08.036z"
    fill="#ffb6b6"
    style="stroke-width:.426024"/>
  <path d="M165.502 124.262c.456.405-.81.904-2.147.117-.383-.228-.547-.323-.59-.263-.107.15.52 1.26.353 3.727-.103 1.471-2.547 4.238-5.323 6.936-3.752 3.649-8.115 7.169-8.115 7.169l-1.532-1.227-16.063-12.878-2.71-3.753a26.704 26.704 0 0 1 1.114-4.359 47.521 47.521 0 0 1 2.418-5.74 69.05 69.05 0 0 1 1.502-2.861l8.606 9.484 7.211 7.943s2.1-3.382 3.727-4.303a1.549 1.549 0 0 1 .688-.237c1.644-.077 1.743-.972-.163-2.922-1.907-1.949.499-.129 2.194-.654 1.695-.525 0 0 .357-1.312s5.112-3.946 5.112-3.946l.198.177 3.593 3.171 1.029.908s-1.124 3.08-1.433 3.73c-.31.65-.478.685-.026 1.093z"
    fill="#1eb980"
    style="stroke-width:.426024"/>
  <path fill="#ffb6b6"
    d="m241.91 183.362 18.307.675.175-4.746-18.223-2.934z"/>
  <path d="m256.91 185.466-.174-7.6 3.25.12 5.244-7.025a2.03 2.03 0 0 1 3.657 1.29l-.334 9.027-3.27 1.438 3.19.726-.125 3.404zM157.652 185.885l57.721 1.464s24.926 1.44 30.775-2.365l6.167-.779.334-9.059s-3.771.028-5.94-.982c-2.168-1.01-.66-2.246-2.728-1.03-2.067 1.215-1.849 1.36-3.447.802-1.599-.558-74.893-11.73-74.893-11.73z"
    fill="#2f2e41"
    style="stroke-width:.426024"/>
  <path fill="#ffb6b6"
    d="m220.752 169.008 12.961 12.946 3.357-3.36-11.364-14.546z"/>
  <path d="m230.316 179.03 5.042-5.688 2.3 2.298 8.623-1.584a2.03 2.03 0 0 1 1.804 3.433l-6.384 6.391-3.375-1.17 1.845 2.702-2.407 2.41zM134.88 154.273l.573 13.34c.676 15.702 17.97 25.206 31.379 17.007q.37-.226.744-.47s5.083-1.364 4.93-3.526c-.155-2.162 1.087-3.215 2.186-2.625 1.099.59 15.489-19.833 15.489-19.833s29.897 14.914 36.493 18.425c0 0 6.201-9.696 5.752-9.595-.45.102-36.987-25.47-36.987-25.47s-5.953-6.025-13.336-2.048c-.154.585-.023.605-.023.605l-24.39 19.875-3.447-6.545z"
    fill="#2f2e41"
    style="stroke-width:.426024"/>
  <path d="M157.877 137.597a13.784 13.784 0 0 1-.263 1.833 10.817 10.817 0 0 1-.843 2.53s0 .9-1.721 3.912.43 1.721 1.721 3.959c1.291 2.233 0 1.204-1.433 2.642a3.29 3.29 0 0 0-.813 3.24s-18.486.013-21.928-1.278-4.225-8.563-1.14-9.282c3.08-.718-.934-1.433-2.746-3.09-1.811-1.656 1.812-4.367 1.812-4.367s-1.493-2.577-1.368-11.23a17.053 17.053 0 0 1 .22-2.376 26.704 26.704 0 0 1 1.114-4.359 47.521 47.521 0 0 1 2.418-5.74 69.038 69.038 0 0 1 1.502-2.861c.077-.138.15-.271.228-.405a72.318 72.318 0 0 1 2.35-3.868c.434-.671.696-1.05.696-1.05l3.133-5.447 10.456 4.9-.594 8.017 1.803 6.046.83 2.784.642 2.147.99 3.326s-.272.013.05.456a14.691 14.691 0 0 1 2.802 6.743 13.73 13.73 0 0 1 .082 2.818z"
    fill="#1eb980"
    style="stroke-width:.426024"/>
  <path d="m188.073 138.461-.196-.063-25.027-8.06 9.223-30.254a4.161 4.161 0 0 1 6.097-2.37l15.993 9.45a6.27 6.27 0 0 1 2.692 7.578z"
    fill="#2f2e41"
    style="stroke-width:.426024"/>
  <path d="m188.175 140.385-25.228-8.124 9.222-30.255a4.161 4.161 0 0 1 6.097-2.37l16.757 8.367c2.517 1.486 2.458 5.335 1.29 8.493z"
    fill="#1eb980"
    style="stroke-width:.426024"/>
  <path d="M185.65 142.574a4.81 4.81 0 0 1-3.856.384l-16.125-5.193a4.986 4.986 0 0 1-3.228-6.173l8.085-26.522a4.161 4.161 0 0 1 5.278-2.74l16.71 5.487a6.272 6.272 0 0 1 3.948 8.077l-8.644 24.098a4.816 4.816 0 0 1-2.169 2.582z"
    fill="#3f3d56"
    style="stroke-width:.426024"/>
  <circle cx="150.681"
    cy="88.903"
    r="11.55"
    fill="#ffb6b6"
    style="stroke-width:.426024"/>
  <path d="M111.626 100.627a10.016 10.016 0 0 0 4.918 4.598 11.517 11.517 0 0 0 2.651.839 10.363 10.363 0 0 1 1.227-2.904 8.556 8.556 0 0 0 0 3.067 10.182 10.182 0 0 0 4.116-.51 8.83 8.83 0 0 0 5.553-5.626c.92-3.062-.07-6.331-.149-9.527-.08-3.196 1.437-7.018 4.61-7.414 2.416-.301 2.117-.067 3.853 1.64-2.428 2.697 3.492 14.645 6.669 14.117 1.796-.298 3.117-1.724 3.473-1.675 1.818 4.455-3.653 10.773.687 12.847l-.322-.426c-2.272-3.753 4.45-10.091 2.178-13.844-.633-1.05-1.292-2.28-.9-3.441.372-1.105 2.255-1.454 2.652-.45-.645-2.302 1.158-5.006 3.552-5.24 2.128-.21 2.005.396 4.034.949a10.35 10.35 0 0 1 1.11-2.486 8.486 8.486 0 0 0-.059 2.683 3.346 3.346 0 0 0 2.106-.446c1.873-1.123 1.929-4.022.642-5.786-1.29-1.765-3.449-2.636-5.532-3.295-.02-4.406-11.874-6.515-14.054-2.419-.225-3.316-4.026-5.55-7.302-4.987-3.275.563-5.858 3.19-7.434 6.116-1.574 2.925-2.356 6.2-3.51 9.315-1.152 3.116-2.8 6.222-5.561 8.07-2.76 1.846-6.863 2.014-9.168-.379a7.314 7.314 0 0 0-.04 6.614z"
    fill="#2f2e41"
    style="stroke-width:.426024"/>
  <path d="M123.476 153.442a4.17 4.17 0 0 1 .774-.49c4.42-2.2 18.168-7.911 28.917-7.677 20.682.451 47.004 23.277 40.878 38.605-4.661 11.664-27.835 18.3-44.75 12.992-23.699-7.435-33.053-37.662-25.819-43.43z"
    fill="#3f3d56"
    style="stroke-width:.426024"/>
  <path d="M37.614 237.469c-6.758-1.275-12.74-31.722.557-46.717 4.555-5.138 10.238-7.374 17.797-9.455 43.506-11.977 76.689-.562 81.148 2.225 4.45 2.78 12.25 44.68 2.275 50.61-5.612 3.337-16.735 5.005-22.246 1.112-8.11-5.728 5.502-20.587-.557-30.588-6.874-11.35-43.077-15.173-61.227-3.893-19.364 12.034 20.578 43.936-17.747 36.706z"
    fill="#f2f2f2"
    style="stroke-width:.426024"/>
  <path d="M82.799 185.703H56.98c-6.373-6.109-10.93-11.996-7.282-16.882a5.296 5.296 0 0 1 5.296-5.296h29.791a5.296 5.296 0 0 1 5.296 5.296c1.39 5.568-1.092 11.196-7.282 16.882z"
    fill="#ccc"
    style="stroke-width:.426024"/>
  <path d="M78.162 156.857a1.196 1.196 0 0 1-.867-2.073l.082-.325-.032-.079a3.212 3.212 0 0 0-5.925.022c-.969 2.334-2.203 4.672-2.506 7.14a9.502 9.502 0 0 0 .166 3.268 38.095 38.095 0 0 1-3.465-15.822 36.769 36.769 0 0 1 .228-4.102q.19-1.675.524-3.326a38.536 38.536 0 0 1 7.643-16.333 10.256 10.256 0 0 0 4.265-4.425 7.823 7.823 0 0 0 .711-2.138c-.207.027-.783-3.135-.626-3.329-.29-.439-.807-.657-1.123-1.086-1.572-2.13-3.738-1.759-4.868 1.137-2.415 1.219-2.439 3.24-.957 5.185.943 1.236 1.073 2.91 1.9 4.234-.085.11-.174.215-.259.324a38.785 38.785 0 0 0-4.048 6.413 16.123 16.123 0 0 0-.963-7.49c-.921-2.222-2.648-4.094-4.169-6.015-1.827-2.308-5.572-1.301-5.894 1.625l-.01.085q.34.19.664.406a1.622 1.622 0 0 1-.654 2.952l-.033.005a16.142 16.142 0 0 0 .425 2.413c-1.95 7.545 2.261 10.293 8.276 10.417.132.068.262.136.394.2a39.588 39.588 0 0 0-2.13 10.029 37.548 37.548 0 0 0 .027 6.063l-.01-.072a9.922 9.922 0 0 0-3.388-5.729c-2.606-2.141-6.289-2.93-9.1-4.65a1.862 1.862 0 0 0-2.852 1.81l.011.076a10.897 10.897 0 0 1 1.222.589q.339.191.664.406a1.622 1.622 0 0 1-.655 2.952l-.033.005-.068.01a16.156 16.156 0 0 0 2.972 4.653c1.22 6.587 6.46 7.212 12.064 5.294h.003a39.576 39.576 0 0 0 2.659 7.761h9.497c.034-.106.065-.214.096-.32a10.79 10.79 0 0 1-2.628-.157c.704-.864 1.409-1.736 2.113-2.6a.59.59 0 0 0 .045-.051c.357-.443.718-.882 1.075-1.325a15.806 15.806 0 0 0-.463-4.026zM110.556 184.32a2.294 2.294 0 0 0 2.21 1.548l9.472-.244a2.263 2.263 0 0 0 2.138-1.665l1.34-14.333a3.502 3.502 0 0 0 1.516.312 3.454 3.454 0 0 0-.174-6.907 2.926 2.926 0 0 0-.62.065 2.341 2.341 0 0 0-1.743-.752l-14.57.376a2.093 2.093 0 0 0-.359.045 2.276 2.276 0 0 0-1.742 2.955zm15.435-15.667.954-3.415a2.326 2.326 0 0 0 .007-1.207c.047 0 .087-.022.134-.022a2.47 2.47 0 0 1 .115 4.94 2.326 2.326 0 0 1-1.21-.296z"
    fill="#ccc"
    style="stroke-width:.426024"/>
  <path d="M109.766 162.765c.31 1.775 3.8 3.022 7.997 2.806 3.858-.178 7.013-1.533 7.591-3.139a2.154 2.154 0 0 0-.659-.088l-14.57.376a2.093 2.093 0 0 0-.359.045z"
    fill="#fff"
    style="stroke-width:.426024"/>
  <path d="m.507 238.141 318.986.13a.507.507 0 0 0 0-1.014l-318.986-.13a.507.507 0 1 0 0 1.014z"
    fill="#cacaca"
    style="stroke-width:.426024"/>
  <path d="M179.416 124.774a3.332 3.332 0 0 0-3.21 3.36 3.197 3.197 0 0 0 .056.526l-10.01 5.91 1.211 6.135 12.839-9.579a3.323 3.323 0 0 0 2.444-3.238 3.18 3.18 0 0 0-3.242-3.117l-.088.003z"
    fill="#ffb6b6"
    style="stroke-width:.426024"/>
  <path d="M171.215 138.864c-.267-.359-.382-.509-.443-.468-.157.095-.006 1.362-1.109 3.572-1.552 3.103-17.826 7.856-17.826 7.856l-2.004-3.668-8.814-16.12-3.037-12.922a5.764 5.764 0 0 1-.154-1.375 54.606 54.606 0 0 1 8.593-4.946 5.753 5.753 0 0 1 2.582 3.076l6.067 17.01 2.421 6.792s4.27-3.053 5.82-2.493c1.546.564 1.986-.227.975-2.758-1.011-2.532.506.074 2.272.24 1.77.168 0 0 .836-1.075.836-1.074 6.239-1.678 6.239-1.678l.115.24 2.094 4.307.599 1.237s-2.22 2.409-2.755 2.889c-.539.483-.705.45-.441 1 .26.549-1.1.524-2.03-.716z"
    fill="#1eb980"
    style="stroke-width:.426024"/>
</svg>
